<svg width="24" height="25" viewBox="0 0 24 25" fill="none" xmlns="http://www.w3.org/2000/svg">
<path d="M10 21.2377H5C3.89543 21.2377 3 20.3423 3 19.2377V12.5346C3 12.0229 3.19615 11.5306 3.54809 11.1592L10.5481 3.77027C11.3369 2.93759 12.663 2.93759 13.4519 3.77027L20.4519 11.1592C20.8038 11.5306 21 12.0229 21 12.5346V19.2377C21 20.3423 20.1046 21.2377 19 21.2377H14M10 21.2377V15.7377C10 15.4616 10.2239 15.2377 10.5 15.2377H13.5C13.7761 15.2377 14 15.4616 14 15.7377V21.2377M10 21.2377H14" stroke="#907457" stroke-width="1.5"/>
</svg>
