<svg width="24" height="24" viewBox="0 0 24 24" fill="none" xmlns="http://www.w3.org/2000/svg">
<path d="M3.75078 1.04824C3.52109 1.12324 3.12734 1.52637 3.05703 1.76543C3.01484 1.91074 3.00078 3.3123 3.00078 7.61543V13.2686L1.87578 15.5232L0.746094 17.7779L0.760156 18.8936C0.774219 20.1217 0.778906 20.1264 1.09766 20.3654C1.22422 20.4639 1.25234 20.4639 6.98984 20.4779L12.7508 20.4873V21.5326C12.7508 22.4795 12.7602 22.592 12.8492 22.7842C12.9664 23.042 13.1398 23.2295 13.3836 23.3607L13.5711 23.4639H18.0008H22.4305L22.618 23.3607C22.8383 23.2436 23.0164 23.0607 23.1383 22.8311C23.2227 22.6717 23.2273 22.4326 23.2273 16.7373V10.8076L23.1242 10.6201C22.993 10.3764 22.8055 10.2029 22.5477 10.0857C22.3695 10.0014 22.2383 9.9873 21.6711 9.9873H21.0008V5.9748C21.0008 3.00762 20.9867 1.91074 20.9445 1.7748C20.9164 1.67168 20.7992 1.48418 20.6867 1.3623C20.3211 0.954491 21.0898 0.987305 11.982 0.991991C6.24453 0.996679 3.86797 1.01074 3.75078 1.04824ZM20.1336 1.85449L20.2508 1.96699V5.97949V9.9873H16.9602C13.7445 9.9873 13.6602 9.99199 13.4539 10.0857C13.1727 10.2123 12.9945 10.3857 12.8633 10.667C12.7555 10.892 12.7508 10.9436 12.7508 11.942V12.9873H8.25078H3.75078V7.47949V1.96699L3.86797 1.85449L3.98047 1.7373H12.0008H20.0211L20.1336 1.85449ZM22.2805 10.7889C22.3461 10.817 22.4211 10.892 22.4492 10.9576C22.5242 11.117 22.5242 22.3576 22.4492 22.517C22.4211 22.5826 22.3461 22.6576 22.2805 22.6857C22.1211 22.7607 13.8805 22.7607 13.7211 22.6857C13.6555 22.6576 13.5805 22.5826 13.5523 22.517C13.4773 22.3576 13.4773 11.117 13.5523 10.9529C13.5805 10.892 13.6508 10.817 13.707 10.7936C13.8523 10.7232 22.1258 10.7186 22.2805 10.7889ZM12.7508 15.6123V17.4873H7.24297H1.73516L2.67266 15.6123L3.61016 13.7373H8.18047H12.7508V15.6123ZM10.1352 18.5654C10.1539 18.9123 10.2242 19.0576 10.4727 19.2404C10.5898 19.3342 10.6742 19.3389 11.6773 19.3529L12.7508 19.367V19.5545V19.7373H7.12578H1.50078V18.9873V18.2373H5.80859H10.1164L10.1352 18.5654ZM12.7508 18.4248V18.6123H11.8133H10.8758V18.4248V18.2373H11.8133H12.7508V18.4248Z" fill="#5D6679"/>
<path d="M5.25 5.93262V8.63262L5.36719 8.74512L5.47969 8.8623H8.92969H12.375V8.4873V8.1123H9.1875H6V5.6748V3.2373H5.625H5.25V5.93262Z" fill="#5D6679"/>
<path d="M13.5 3.6123V3.9873H14.25H15V3.6123V3.2373H14.25H13.5V3.6123Z" fill="#5D6679"/>
<path d="M15.75 3.6123V3.9873H17.25H18.75V3.6123V3.2373H17.25H15.75V3.6123Z" fill="#5D6679"/>
<path d="M10.1255 3.98691V4.36191H10.4161H10.7115L10.0458 5.02754L9.3802 5.69316L8.8927 5.21504C8.21302 4.54941 8.29739 4.53066 7.29895 5.5291C6.39895 6.41973 6.43177 6.34004 6.84427 6.6916L7.04114 6.86035L7.64583 6.25566L8.25052 5.65566L8.73333 6.13379C9.4177 6.8041 9.31927 6.82754 10.3927 5.75879L11.2505 4.90566V5.19629V5.48691H11.6255H12.0005V4.6666C12.0005 3.55098 12.0615 3.61191 10.9458 3.61191H10.1255V3.98691Z" fill="#5D6679"/>
<path d="M13.5 5.1123V5.4873H16.125H18.75V5.1123V4.7373H16.125H13.5V5.1123Z" fill="#5D6679"/>
<path d="M13.5 6.6123V6.9873H16.125H18.75V6.6123V6.2373H16.125H13.5V6.6123Z" fill="#5D6679"/>
<path d="M13.5 8.1123V8.4873H16.125H18.75V8.1123V7.7373H16.125H13.5V8.1123Z" fill="#5D6679"/>
<path d="M5.25 9.9873V10.3623H6.75H8.25V9.9873V9.6123H6.75H5.25V9.9873Z" fill="#5D6679"/>
<path d="M5.25 11.4873V11.8623H6.75H8.25V11.4873V11.1123H6.75H5.25V11.4873Z" fill="#5D6679"/>
<path d="M13.9922 11.2295L13.875 11.342V12.6123V13.8826L13.9922 13.9951L14.1047 14.1123H18H21.8953L22.0078 13.9951L22.125 13.8826V12.6123V11.342L22.0078 11.2295L21.8953 11.1123H18H14.1047L13.9922 11.2295ZM21.375 12.6123V13.3623H18H14.625V12.6123V11.8623H18H21.375V12.6123Z" fill="#5D6679"/>
<path d="M13.9933 14.9794C13.8761 15.0919 13.8761 15.1013 13.8761 15.9872C13.8761 17.1919 13.7964 17.1122 15.0011 17.1122C16.2058 17.1122 16.1261 17.1919 16.1261 15.9872C16.1261 14.7825 16.2058 14.8622 15.0011 14.8622C14.1152 14.8622 14.1058 14.8622 13.9933 14.9794ZM15.3761 15.9872V16.3622H15.0011H14.6261V15.9872V15.6122H15.0011H15.3761V15.9872Z" fill="#5D6679"/>
<path d="M16.9933 14.9794C16.8761 15.0919 16.8761 15.1013 16.8761 15.9872C16.8761 17.1919 16.7964 17.1122 18.0011 17.1122C19.2058 17.1122 19.1261 17.1919 19.1261 15.9872C19.1261 14.7825 19.2058 14.8622 18.0011 14.8622C17.1152 14.8622 17.1058 14.8622 16.9933 14.9794ZM18.3761 15.9872V16.3622H18.0011H17.6261V15.9872V15.6122H18.0011H18.3761V15.9872Z" fill="#5D6679"/>
<path d="M19.9933 14.9794C19.8761 15.0919 19.8761 15.1013 19.8761 15.9872C19.8761 17.1919 19.7964 17.1122 21.0011 17.1122C22.2058 17.1122 22.1261 17.1919 22.1261 15.9872C22.1261 14.7825 22.2058 14.8622 21.0011 14.8622C20.1152 14.8622 20.1058 14.8622 19.9933 14.9794ZM21.3761 15.9872V16.3622H21.0011H20.6261V15.9872V15.6122H21.0011H21.3761V15.9872Z" fill="#5D6679"/>
<path d="M13.9933 17.6044C13.8761 17.7169 13.8761 17.7263 13.8761 18.6122C13.8761 19.8169 13.7964 19.7372 15.0011 19.7372C16.2058 19.7372 16.1261 19.8169 16.1261 18.6122C16.1261 17.4075 16.2058 17.4872 15.0011 17.4872C14.1152 17.4872 14.1058 17.4872 13.9933 17.6044ZM15.3761 18.6122V18.9872H15.0011H14.6261V18.6122V18.2372H15.0011H15.3761V18.6122Z" fill="#5D6679"/>
<path d="M16.9933 17.6044C16.8761 17.7169 16.8761 17.7263 16.8761 18.6122C16.8761 19.8169 16.7964 19.7372 18.0011 19.7372C19.2058 19.7372 19.1261 19.8169 19.1261 18.6122C19.1261 17.4075 19.2058 17.4872 18.0011 17.4872C17.1152 17.4872 17.1058 17.4872 16.9933 17.6044ZM18.3761 18.6122V18.9872H18.0011H17.6261V18.6122V18.2372H18.0011H18.3761V18.6122Z" fill="#5D6679"/>
<path d="M19.9933 17.6044C19.8761 17.7169 19.8761 17.7263 19.8761 18.6122C19.8761 19.8169 19.7964 19.7372 21.0011 19.7372C22.2058 19.7372 22.1261 19.8169 22.1261 18.6122C22.1261 17.4075 22.2058 17.4872 21.0011 17.4872C20.1152 17.4872 20.1058 17.4872 19.9933 17.6044ZM21.3761 18.6122V18.9872H21.0011H20.6261V18.6122V18.2372H21.0011H21.3761V18.6122Z" fill="#5D6679"/>
<path d="M13.9933 20.2294C13.8761 20.3419 13.8761 20.3513 13.8761 21.2372C13.8761 22.4419 13.7964 22.3622 15.0011 22.3622C16.2058 22.3622 16.1261 22.4419 16.1261 21.2372C16.1261 20.0325 16.2058 20.1122 15.0011 20.1122C14.1152 20.1122 14.1058 20.1122 13.9933 20.2294ZM15.3761 21.2372V21.6122H15.0011H14.6261V21.2372V20.8622H15.0011H15.3761V21.2372Z" fill="#5D6679"/>
<path d="M16.9933 20.2294C16.8761 20.3419 16.8761 20.3513 16.8761 21.2372C16.8761 22.4419 16.7964 22.3622 18.0011 22.3622C19.2058 22.3622 19.1261 22.4419 19.1261 21.2372C19.1261 20.0325 19.2058 20.1122 18.0011 20.1122C17.1152 20.1122 17.1058 20.1122 16.9933 20.2294ZM18.3761 21.2372V21.6122H18.0011H17.6261V21.2372V20.8622H18.0011H18.3761V21.2372Z" fill="#5D6679"/>
<path d="M19.9933 20.2294C19.8761 20.3419 19.8761 20.3513 19.8761 21.2372C19.8761 22.4419 19.7964 22.3622 21.0011 22.3622C22.2058 22.3622 22.1261 22.4419 22.1261 21.2372C22.1261 20.0325 22.2058 20.1122 21.0011 20.1122C20.1152 20.1122 20.1058 20.1122 19.9933 20.2294ZM21.3761 21.2372V21.6122H21.0011H20.6261V21.2372V20.8622H21.0011H21.3761V21.2372Z" fill="#5D6679"/>
<path d="M4.125 14.8623V15.2373H4.5H4.875V14.8623V14.4873H4.5H4.125V14.8623Z" fill="#5D6679"/>
<path d="M5.625 14.8623V15.2373H6H6.375V14.8623V14.4873H6H5.625V14.8623Z" fill="#5D6679"/>
<path d="M7.125 14.8623V15.2373H7.5H7.875V14.8623V14.4873H7.5H7.125V14.8623Z" fill="#5D6679"/>
<path d="M8.625 14.8623V15.2373H9H9.375V14.8623V14.4873H9H8.625V14.8623Z" fill="#5D6679"/>
<path d="M10.125 14.8623V15.2373H10.5H10.875V14.8623V14.4873H10.5H10.125V14.8623Z" fill="#5D6679"/>
<path d="M3.75 16.3623V16.7373H4.125H4.5V16.3623V15.9873H4.125H3.75V16.3623Z" fill="#5D6679"/>
<path d="M5.25 16.3623V16.7373H5.625H6V16.3623V15.9873H5.625H5.25V16.3623Z" fill="#5D6679"/>
<path d="M6.75 16.3623V16.7373H9H11.25V16.3623V15.9873H9H6.75V16.3623Z" fill="#5D6679"/>
</svg>
