<svg width="24" height="25" viewBox="0 0 24 25" fill="none" xmlns="http://www.w3.org/2000/svg">
<g clip-path="url(#clip0_470_28950)">
<path d="M9.61404 0.687304C9.55779 0.729492 9.35154 1.08105 9.15466 1.4748C8.80779 2.17324 8.8031 2.1873 8.82654 2.47793C8.85466 2.84355 9.02341 3.14355 9.34216 3.37793L9.56247 3.54199V4.9623V6.38262L9.67966 6.49512L9.79216 6.6123H12H14.2078L14.3203 6.49512L14.4375 6.38262V4.9623V3.54199L14.6578 3.37793C14.9765 3.14355 15.1453 2.84355 15.1734 2.47793C15.1968 2.1873 15.1922 2.17324 14.8453 1.4748C14.6484 1.08105 14.4422 0.729492 14.3859 0.687304C14.2875 0.621679 14.0156 0.612305 12 0.612305C9.98435 0.612305 9.71247 0.621679 9.61404 0.687304ZM14.1937 1.83105C14.325 2.08887 14.4375 2.35137 14.4375 2.42168C14.4375 2.58574 14.1609 2.8623 13.9968 2.8623C13.7203 2.8623 13.5703 2.71699 13.4531 2.3373C13.3922 2.14043 13.2515 2.01855 13.0875 2.01855C12.9047 2.01855 12.8109 2.09824 12.689 2.36074C12.5343 2.70293 12.3375 2.83887 12 2.83887C11.6625 2.83887 11.4656 2.70293 11.3109 2.36074C11.189 2.09824 11.0953 2.01855 10.9125 2.01855C10.725 2.01855 10.5984 2.1498 10.5187 2.41699C10.439 2.70762 10.2797 2.8623 10.0687 2.8623C9.79685 2.8623 9.56716 2.65137 9.56247 2.40293C9.56247 2.36074 9.67029 2.10762 9.80622 1.84512L10.0547 1.3623H12H13.9453L14.1937 1.83105ZM11.3672 3.45762C11.5734 3.57012 11.6531 3.58887 12 3.58418C12.4078 3.58418 12.6328 3.50918 12.9328 3.27949C13.0406 3.19043 13.0453 3.19043 13.2 3.32637C13.2843 3.40137 13.4297 3.49043 13.5187 3.52324L13.6875 3.58418V4.72324V5.8623H12H10.3125V4.72324V3.58887L10.5187 3.50449C10.6312 3.45762 10.7718 3.36855 10.8281 3.30762C10.9312 3.1998 10.9453 3.19512 11.0343 3.26074C11.0906 3.29824 11.2406 3.3873 11.3672 3.45762Z" fill="#5D6679"/>
<path d="M1.17654 5.5623C1.12029 5.60449 0.914035 5.95605 0.717161 6.3498C0.370286 7.04824 0.365598 7.0623 0.389036 7.35293C0.417161 7.71855 0.585911 8.01855 0.904661 8.25293L1.12497 8.41699V9.8373V11.2576L1.24216 11.3701L1.35466 11.4873H3.56247H5.77029L5.88279 11.3701L5.99997 11.2576V9.8373V8.41699L6.22029 8.25293C6.53904 8.01855 6.70779 7.71855 6.73591 7.35293C6.75935 7.0623 6.75466 7.04824 6.40779 6.3498C6.21091 5.95605 6.00466 5.60449 5.94841 5.5623C5.84997 5.49668 5.5781 5.4873 3.56247 5.4873C1.54685 5.4873 1.27497 5.49668 1.17654 5.5623ZM5.75622 6.70605C5.88747 6.96387 5.99997 7.22637 5.99997 7.29668C5.99997 7.46074 5.72341 7.7373 5.55935 7.7373C5.28279 7.7373 5.13279 7.59199 5.0156 7.2123C4.95466 7.01543 4.81404 6.89355 4.64997 6.89355C4.46716 6.89355 4.37341 6.97324 4.25154 7.23574C4.09685 7.57793 3.89997 7.71387 3.56247 7.71387C3.22497 7.71387 3.0281 7.57793 2.87341 7.23574C2.75154 6.97324 2.65779 6.89355 2.47497 6.89355C2.28747 6.89355 2.16091 7.0248 2.08122 7.29199C2.00154 7.58262 1.84216 7.7373 1.63122 7.7373C1.35935 7.7373 1.12966 7.52637 1.12497 7.27793C1.12497 7.23574 1.23279 6.98262 1.36872 6.72012L1.61716 6.2373H3.56247H5.50779L5.75622 6.70605ZM2.92966 8.33262C3.13591 8.44512 3.2156 8.46387 3.56247 8.45918C3.97029 8.45918 4.19529 8.38418 4.49529 8.15449C4.6031 8.06543 4.60779 8.06543 4.76247 8.20137C4.84685 8.27637 4.99216 8.36543 5.08122 8.39824L5.24997 8.45918V9.59824V10.7373H3.56247H1.87497V9.59824V8.46387L2.08122 8.37949C2.19372 8.33262 2.33435 8.24355 2.3906 8.18262C2.49372 8.0748 2.50779 8.07012 2.59685 8.13574C2.6531 8.17324 2.8031 8.2623 2.92966 8.33262Z" fill="#5D6679"/>
<path d="M18.0524 5.5623C17.9962 5.60449 17.7899 5.95137 17.5977 6.34043C17.2181 7.10449 17.1852 7.26387 17.3212 7.64824C17.4149 7.91074 17.5884 8.13105 17.8181 8.28574L18.0009 8.40762V9.83262V11.2576L18.1181 11.3701L18.2306 11.4873H20.4384H22.6462L22.7587 11.3701L22.8759 11.2576V9.8373V8.41699L23.0962 8.25293C23.4149 8.01855 23.5837 7.71855 23.6118 7.35293C23.6352 7.0623 23.6306 7.04824 23.2837 6.3498C23.0868 5.95605 22.8806 5.60449 22.8243 5.5623C22.7259 5.49668 22.454 5.4873 20.4384 5.4873C18.4227 5.4873 18.1509 5.49668 18.0524 5.5623ZM22.6321 6.70605C22.7634 6.96387 22.8759 7.2123 22.8759 7.26387C22.8759 7.49824 22.6415 7.7373 22.4071 7.7373C22.1868 7.7373 22.0415 7.60605 21.9337 7.31543C21.8212 7.01074 21.7087 6.89355 21.5165 6.89355C21.3477 6.89355 21.2587 6.97324 21.1368 7.23574C20.9868 7.56387 20.7712 7.71387 20.4431 7.71387C20.1009 7.71387 19.904 7.57793 19.754 7.24043C19.6415 6.98262 19.5384 6.89355 19.3509 6.89355C19.1634 6.89355 19.0368 7.0248 18.9571 7.29199C18.8774 7.58262 18.7181 7.7373 18.5071 7.7373C18.2352 7.7373 18.0056 7.52637 18.0009 7.27793C18.0009 7.23574 18.1087 6.98262 18.2446 6.72012L18.4931 6.2373H20.4384H22.3837L22.6321 6.70605ZM19.8056 8.33262C20.0118 8.44512 20.0915 8.46387 20.4384 8.45918C20.8462 8.45918 21.0712 8.38418 21.3712 8.15449C21.479 8.06543 21.4837 8.06543 21.6384 8.20137C21.7227 8.27637 21.8681 8.36543 21.9571 8.39824L22.1259 8.45918V9.59824V10.7373H20.4384H18.7509V9.59824V8.46387L18.9571 8.37949C19.0696 8.33262 19.2102 8.24355 19.2665 8.18262C19.3696 8.0748 19.3837 8.07012 19.4727 8.13574C19.529 8.17324 19.679 8.2623 19.8056 8.33262Z" fill="#5D6679"/>
<path d="M11.625 10.1748V12.7998H12H12.375V10.1748V7.5498H12H11.625V10.1748Z" fill="#5D6679"/>
<path d="M6.92852 12.0126L6.71289 12.3032L8.0207 13.2876C8.74258 13.8266 9.34258 14.2579 9.35195 14.2438C9.36602 14.2297 9.46914 14.0985 9.58164 13.9438L9.78789 13.6719L8.48945 12.6969C7.77695 12.1626 7.18633 11.7219 7.17227 11.7219C7.15352 11.7219 7.0457 11.8532 6.92852 12.0126Z" fill="#5D6679"/>
<path d="M15.5244 12.6873C14.6619 13.3342 14.2494 13.6717 14.2682 13.7139C14.301 13.8076 14.6385 14.2529 14.6713 14.2529C14.7182 14.2529 17.2307 12.3592 17.2448 12.317C17.2635 12.2748 16.8744 11.7217 16.8323 11.7217C16.8182 11.7217 16.2276 12.1576 15.5244 12.6873Z" fill="#5D6679"/>
<path d="M11.4898 13.8076C10.9789 13.967 10.5336 14.4357 10.3789 14.9748C10.2289 15.5092 10.3742 16.1186 10.7539 16.5357L10.9227 16.7232L10.6414 16.7561C10.2711 16.7982 9.76953 17.0514 9.51641 17.3279C9.40859 17.4451 9.25391 17.6795 9.17422 17.8529L9.02422 18.167L9.01016 20.3326L8.99609 22.5029L9.11328 22.6201L9.23047 22.7373H10.7961H12.3664L12.4883 22.9014C12.6523 23.1123 12.9055 23.192 13.1492 23.1123C13.3883 23.0326 13.6227 23.1545 13.6883 23.3936C13.7398 23.5904 13.8805 23.7545 14.0492 23.8201C14.1992 23.8764 15.0523 23.8764 15.2023 23.8201C15.3711 23.7545 15.5117 23.5904 15.5633 23.3936C15.6242 23.1592 15.8633 23.0326 16.093 23.1076C16.332 23.1873 16.6086 23.1029 16.7492 22.9107C17.2602 22.217 17.3539 21.842 17.0773 21.5561C16.8898 21.3639 16.8664 21.1154 17.0211 20.9748C17.157 20.8529 17.2508 20.6561 17.2508 20.5014C17.2508 20.3701 16.9789 19.8592 16.7539 19.5639C16.6039 19.3623 16.3414 19.2826 16.1023 19.3623C15.8586 19.442 15.6289 19.3201 15.5633 19.0764C15.507 18.8701 15.3195 18.6732 15.1414 18.6357C15.0242 18.6076 15.0102 18.5842 14.982 18.3592C14.9398 18.0311 14.7289 17.5904 14.4805 17.3279C14.232 17.0514 13.7305 16.7982 13.3602 16.7561L13.0789 16.7232L13.2477 16.5357C14.2227 15.4576 13.4352 13.7232 11.982 13.742C11.8227 13.742 11.6023 13.7748 11.4898 13.8076ZM12.4414 14.6045C13.1633 14.9467 13.0461 16.0951 12.268 16.3107C11.5461 16.517 10.9133 15.8842 11.1102 15.1529C11.1711 14.9139 11.4617 14.6045 11.682 14.5389C11.8977 14.4732 12.2258 14.5014 12.4414 14.6045ZM13.4727 17.5436C13.7305 17.6186 14.1195 18.0076 14.1945 18.2654C14.2789 18.5514 14.2648 18.6029 14.1148 18.6357C13.932 18.6732 13.7445 18.8654 13.6883 19.0764C13.6227 19.3201 13.393 19.442 13.1492 19.3623C13.0133 19.3154 12.9336 19.3154 12.7883 19.3576C12.5914 19.4186 12.4414 19.592 12.1555 20.1029C11.9492 20.4686 11.9586 20.6936 12.1836 20.9279C12.3805 21.1295 12.3852 21.3545 12.1883 21.542C12.1133 21.617 12.0336 21.7436 12.0195 21.8326L11.9914 21.9873H10.8711H9.75078V20.2248C9.75078 18.9732 9.76953 18.4014 9.80703 18.2654C9.87734 18.0264 10.2711 17.6232 10.5008 17.5482C10.7398 17.4732 13.2195 17.4686 13.4727 17.5436ZM14.8602 19.4326C14.8602 19.6248 15.0102 19.7795 15.4086 19.9951C15.7789 20.1967 15.8352 20.2154 16.0367 20.1873C16.2523 20.1592 16.2664 20.1639 16.3367 20.2998C16.407 20.4404 16.407 20.4498 16.2898 20.5857C16.1633 20.7404 16.1633 20.7451 16.1633 21.2373C16.1633 21.7295 16.1633 21.7342 16.2898 21.8889C16.407 22.0248 16.407 22.0342 16.3367 22.1701C16.2711 22.3061 16.257 22.3107 16.0367 22.2826C15.8305 22.2592 15.7742 22.2779 15.4039 22.4795C15.0102 22.6904 14.8602 22.8498 14.8602 23.042C14.8602 23.0936 14.8039 23.1123 14.6258 23.1123C14.4477 23.1123 14.3914 23.0936 14.3914 23.042C14.3914 22.8498 14.2414 22.6951 13.843 22.4795C13.4727 22.2779 13.4164 22.2592 13.2148 22.2873C12.9992 22.3154 12.9852 22.3107 12.9148 22.1748C12.8445 22.0342 12.8445 22.0248 12.9617 21.8889C13.0883 21.7342 13.0883 21.7295 13.0883 21.2373C13.0883 20.7451 13.0883 20.7404 12.9617 20.5857C12.8445 20.4498 12.8445 20.4404 12.9148 20.2998C12.9852 20.1639 12.9992 20.1592 13.2148 20.1873C13.4258 20.2154 13.4773 20.2014 13.8477 19.9951C14.2414 19.7842 14.3914 19.6248 14.3914 19.4326C14.3914 19.3811 14.4477 19.3623 14.6258 19.3623C14.8039 19.3623 14.8602 19.3811 14.8602 19.4326Z" fill="#5D6679"/>
<path d="M14.2508 20.1732C14.0211 20.2482 13.6274 20.6514 13.5571 20.8904C13.4258 21.3311 13.5196 21.6826 13.8524 22.0107C14.0915 22.2545 14.3305 22.3623 14.6258 22.3623C15.2071 22.3623 15.7508 21.8186 15.7508 21.2373C15.7508 20.942 15.643 20.7029 15.3993 20.4639C15.0711 20.1311 14.6868 20.0373 14.2508 20.1732ZM14.8836 20.9795C15.118 21.2092 14.954 21.6123 14.6258 21.6123C14.4336 21.6123 14.2508 21.4295 14.2508 21.2373C14.2508 21.0451 14.4336 20.8623 14.6258 20.8623C14.7149 20.8623 14.8133 20.9045 14.8836 20.9795Z" fill="#5D6679"/>
</g>
<defs>
<clipPath id="clip0_470_28950">
<rect width="24" height="24" fill="white" transform="translate(0 0.237305)"/>
</clipPath>
</defs>
</svg>
