<svg width="24" height="25" viewBox="0 0 24 25" fill="none" xmlns="http://www.w3.org/2000/svg">
<path d="M10 21.2373H5C3.89543 21.2373 3 20.3419 3 19.2373V12.5342C3 12.0225 3.19615 11.5303 3.54809 11.1588L10.5481 3.76987C11.3369 2.93719 12.663 2.93719 13.4519 3.76987L20.4519 11.1588C20.8038 11.5303 21 12.0225 21 12.5342V19.2373C21 20.3419 20.1046 21.2373 19 21.2373H14M10 21.2373V15.7373C10 15.4612 10.2239 15.2373 10.5 15.2373H13.5C13.7761 15.2373 14 15.4612 14 15.7373V21.2373M10 21.2373H14" stroke="#5D6679" stroke-width="1.5"/>
</svg>
