<svg width="24" height="25" viewBox="0 0 24 25" fill="none" xmlns="http://www.w3.org/2000/svg">
<path d="M10.5517 0.322042C10.2828 0.458563 10.2052 0.646866 10.1328 1.37654C10.0966 1.73432 10.0552 2.04502 10.0397 2.06385C10.0241 2.08739 9.8431 2.17213 9.64655 2.24745L9.27931 2.38397L8.68966 1.94616C8.07931 1.49423 7.82586 1.37654 7.56724 1.43303C7.47414 1.45657 7.10172 1.76257 6.5069 2.29923L5.58621 3.13719V3.37257C5.58621 3.63619 5.6069 3.66444 6.22759 4.35645L6.63103 4.80367L6.48621 5.12379C6.40862 5.29797 6.33103 5.45332 6.31552 5.47215C6.3 5.48628 5.93793 5.53335 5.51897 5.57572C4.27241 5.69812 4.27759 5.69341 4.24138 6.99271C4.21552 7.76476 4.19483 7.97189 4.11207 8.14607C4.03966 8.31084 4.01379 8.48502 4.00862 8.92282C4.00345 9.38417 3.98793 9.51127 3.91034 9.61955C3.76552 9.81256 3.82241 10.1515 4.02414 10.3163C4.1069 10.3869 4.19483 10.4481 4.22069 10.4575C4.24655 10.4669 4.35517 10.6364 4.45862 10.8341C4.64483 11.1731 4.90345 11.4461 5.21897 11.6344C5.39483 11.738 5.33276 11.8651 5.11034 11.8651C4.30862 11.8698 3.31034 12.4818 2.92241 13.202C2.81379 13.395 2.70517 13.7057 2.65345 13.9364C2.6069 14.1577 2.55517 14.3507 2.53448 14.3742C2.51897 14.3931 2.36379 14.12 2.19828 13.7669C1.86207 13.0655 1.61379 12.7548 1.26724 12.6136C0.662069 12.3594 0 12.6748 0 13.2162C0 13.4845 1.42241 18.5452 1.5931 18.8794C1.82586 19.336 2.73103 20.0657 5.63793 22.1229L6.38793 22.6549L6.37241 22.8856C6.34655 23.1774 6.43448 23.3045 6.99828 23.8177C7.39138 24.166 7.45862 24.2131 7.66034 24.2319C7.82586 24.2461 7.92931 24.2272 8.0431 24.1613C8.3431 23.9871 11.2034 21.4827 11.2707 21.3321C11.3948 21.0684 11.3121 20.8895 10.8362 20.4235C10.5983 20.1928 10.3603 19.9716 10.3086 19.9386C10.1586 19.8492 9.96207 19.8209 9.78621 19.868C9.62069 19.9104 9.62069 19.9104 9.37759 19.529C9.06207 19.0253 8.71035 18.6487 8.4 18.4698C8.26034 18.3945 7.47931 18.065 6.66207 17.7449L5.17241 17.1611L8.58621 17.147C10.4638 17.1423 13.5362 17.1423 15.4138 17.147L18.8328 17.1611L17.2914 17.7684C16.4431 18.1026 15.6517 18.4369 15.5276 18.5122C15.2586 18.677 14.9069 19.0724 14.6534 19.4914C14.3897 19.9245 14.4052 19.9151 14.1879 19.8586C13.9241 19.7927 13.6603 19.9386 13.1483 20.4423C12.6776 20.9037 12.6 21.0825 12.7397 21.3462C12.8224 21.5109 15.7914 24.086 16.019 24.1943C16.1017 24.2319 16.2362 24.2461 16.3603 24.2319C16.5362 24.2084 16.6397 24.1425 17.0276 23.7894C17.581 23.2951 17.6586 23.1774 17.6276 22.8856L17.6017 22.6643L18.75 21.8546C20.4466 20.6542 21.8793 19.5667 22.1017 19.3125C22.2052 19.1901 22.35 18.983 22.4172 18.8559C22.5776 18.5499 24 13.4845 24 13.2162C24 12.6748 23.3379 12.3594 22.7328 12.6136C22.3086 12.7878 22.1017 13.089 21.4345 14.5249L21.3466 14.7132L21.2328 14.1718C21.0983 13.5457 21 13.3009 20.7517 12.9619C20.3224 12.3594 19.3914 11.8651 18.6879 11.8651C18.4345 11.8651 18.4655 11.7286 18.7655 11.5261C19.0345 11.3472 19.3397 10.9659 19.4534 10.6741C19.4948 10.5611 19.5828 10.4622 19.6966 10.4057C19.8621 10.3163 20.0172 10.0715 20.0172 9.902C20.0172 9.85964 19.9707 9.73253 19.9086 9.62426C19.8103 9.43124 19.8052 9.41241 19.8828 9.04051C20.0379 8.29671 19.9655 7.3599 19.7328 7.14335C19.6293 7.05391 19.6138 6.97859 19.5931 6.56903C19.5672 6.04177 19.4845 5.83464 19.2517 5.72636C19.169 5.6887 18.7603 5.6228 18.3362 5.58043C17.5397 5.5004 17.4828 5.49098 17.4828 5.40625C17.4828 5.378 17.4207 5.23207 17.3483 5.08142L17.2138 4.80838L17.6741 4.29996C18.2328 3.68327 18.2586 3.64561 18.2586 3.36315V3.13719L17.369 2.32748C16.8828 1.88026 16.4172 1.48953 16.3397 1.45657C16.0655 1.35771 15.8638 1.43774 15.1914 1.92262L14.5603 2.38397L14.2241 2.25686C14.0379 2.18625 13.8621 2.11093 13.831 2.08268C13.8052 2.05914 13.7483 1.74374 13.7121 1.38596C13.5983 0.242012 13.5931 0.237305 11.9224 0.237305C10.8621 0.237305 10.7121 0.246721 10.5517 0.322042ZM13.1017 0.95286C13.1172 1.06584 13.1586 1.41891 13.1897 1.74374C13.2259 2.06856 13.2828 2.37456 13.319 2.43105C13.3552 2.48283 13.4897 2.55344 13.6086 2.5864C13.7328 2.61935 13.9862 2.70879 14.1672 2.78411C14.3483 2.85944 14.55 2.92064 14.6121 2.92064C14.6845 2.92064 14.9948 2.72292 15.3983 2.42634C15.7707 2.1533 16.0914 1.93204 16.1172 1.93204C16.1431 1.93204 16.5259 2.25686 16.9603 2.65701C17.5655 3.2078 17.7466 3.40081 17.7052 3.44789C17.6793 3.48084 17.4155 3.77271 17.1259 4.09283C16.8414 4.41765 16.6034 4.71894 16.6034 4.76601C16.6034 4.81309 16.6603 4.95432 16.7276 5.07672C16.7948 5.19911 16.9034 5.42979 16.9655 5.58984C17.0276 5.75461 17.1103 5.90525 17.1466 5.9335C17.1828 5.96174 17.5914 6.01824 18.0569 6.0606C18.5224 6.10297 18.9362 6.15946 18.9724 6.183C19.019 6.21595 19.0345 6.35718 19.0241 6.6773L19.0086 7.12452L18.8017 7.19984C18.6362 7.26104 18.3724 7.27516 17.431 7.27516C16.3293 7.27516 16.2569 7.27987 16.0552 7.37873C15.4603 7.6659 15.1241 8.40499 15.2534 9.13937C15.3052 9.41241 15.3 9.4642 15.2017 9.63367C15.1293 9.76548 15.1086 9.86434 15.1293 9.98203C15.1707 10.1798 15.3259 10.3916 15.4655 10.4293C15.5172 10.4434 15.6207 10.5705 15.6931 10.7164C15.8793 11.0789 16.1017 11.3519 16.3966 11.5544C16.6707 11.7427 16.6914 11.8651 16.4534 11.8651C16.381 11.8651 16.1793 11.898 16.0086 11.9404C15.8379 11.9781 15.6517 12.0204 15.5948 12.0345C15.5172 12.0534 15.3776 11.9781 15.1086 11.7803C14.8862 11.6109 14.6638 11.4885 14.5655 11.4743C14.4776 11.4602 14.2603 11.3943 14.0793 11.3284C13.8828 11.2484 13.6086 11.1872 13.3914 11.1731C13.0707 11.1495 13.019 11.1307 12.9672 11.0318C12.9414 10.9706 12.9259 10.9188 12.9362 10.9094C12.9466 10.9 13.081 10.8106 13.2362 10.7117C13.5672 10.4952 13.9241 10.0715 14.0379 9.75607C14.1052 9.58189 14.1776 9.49244 14.3483 9.37946C14.5397 9.26177 14.6276 9.14408 14.8707 8.70157C15.4241 7.68002 15.45 6.84677 14.9483 5.90996C14.1776 4.46944 12.4707 3.81508 10.8362 4.32821C9.49655 4.74718 8.58621 5.9335 8.58621 7.26575C8.58621 7.81183 8.68448 8.13665 9.03103 8.76747C9.25862 9.17703 9.3569 9.30414 9.52241 9.403C9.63103 9.46891 9.72414 9.54893 9.72414 9.57718C9.72414 9.67604 10.0345 10.1845 10.2207 10.3916C10.319 10.4999 10.5103 10.6599 10.6448 10.7447C10.7793 10.8247 10.8931 10.8953 10.9034 10.9C10.9138 10.9094 10.9034 10.9659 10.8828 11.0365C10.8517 11.1495 10.8259 11.1589 10.5828 11.1589C10.4224 11.1589 10.1483 11.2154 9.87931 11.3049C9.63621 11.3849 9.37241 11.4602 9.28448 11.4743C9.20172 11.4885 8.94828 11.6344 8.73103 11.7992L8.33276 12.1005L8.1569 12.0298C8.05345 11.9922 7.81034 11.9357 7.60862 11.9074C7.41207 11.8745 7.23621 11.8227 7.22069 11.7898C7.20517 11.7568 7.31379 11.6485 7.46897 11.545C7.75862 11.3425 8.05862 10.9753 8.17759 10.6741C8.21897 10.5611 8.3069 10.4622 8.38966 10.4245C8.46724 10.3869 8.57069 10.3069 8.61724 10.241C8.72069 10.095 8.72069 9.74195 8.61207 9.5913C8.53965 9.48774 8.53965 9.43595 8.59138 9.16291C8.66897 8.79572 8.6069 8.4097 8.42069 8.06133C8.16207 7.56704 7.49483 7.13864 6.79138 7.01625C6.35172 6.93622 5.68448 6.97859 5.30172 7.10569C5.13103 7.16218 4.95 7.21867 4.90345 7.2375C4.82069 7.26104 4.81034 7.21397 4.81034 6.71496C4.81034 6.07473 4.68103 6.15946 5.84483 6.05119C6.28448 6.00882 6.67241 5.95233 6.70862 5.92408C6.73966 5.90055 6.81207 5.76873 6.85862 5.63692C6.90517 5.5004 7.01379 5.26973 7.09138 5.12379C7.17414 4.97315 7.24138 4.8178 7.24138 4.77072C7.24138 4.72365 6.9931 4.40824 6.6931 4.074C6.3931 3.73505 6.13448 3.44318 6.11897 3.41964C6.08793 3.37727 7.65 1.93204 7.72759 1.93204C7.75345 1.93204 8.05862 2.13918 8.4 2.39338C8.74655 2.64759 9.07759 2.88297 9.13966 2.91122C9.23276 2.9583 9.31034 2.93947 9.63621 2.80765C9.84828 2.71821 10.1224 2.61935 10.2414 2.5864C10.3603 2.55344 10.4897 2.48283 10.5259 2.43105C10.5621 2.37456 10.619 2.06856 10.65 1.74374C10.681 1.41891 10.7224 1.06584 10.7379 0.95286L10.769 0.75514H11.9224H13.0707L13.1017 0.95286ZM12.6466 4.73306C13.1121 4.84604 13.4379 5.02493 13.8621 5.41566C14.5241 6.01353 14.8241 6.77145 14.7 7.53879C14.669 7.74592 14.5966 8.00013 14.5345 8.11312C14.4776 8.22139 14.4414 8.27318 14.4569 8.23081C14.669 7.52467 14.3948 6.69142 13.7638 6.1171C12.8224 5.26031 11.5966 5.21794 10.7534 6.00882C10.5983 6.15005 10.3862 6.31011 10.2776 6.36189C9.94138 6.52195 9.64655 6.80911 9.49138 7.11981C9.37241 7.3599 9.34655 7.48701 9.34138 7.79771C9.33621 8.22139 9.3 8.21668 9.18103 7.76476C9.07759 7.3599 9.08276 7.05391 9.2069 6.62081C9.35172 6.10768 9.53276 5.82052 9.98276 5.41566C10.5879 4.86487 11.0793 4.67186 11.8966 4.66715C12.1397 4.66245 12.4759 4.6954 12.6466 4.73306ZM12.8121 6.1218C13.2466 6.3054 13.5672 6.58785 13.7741 6.96446C13.9241 7.24692 13.9397 7.30812 13.9397 7.7318C13.9397 7.9813 13.9241 8.20256 13.9034 8.21668C13.8828 8.23551 13.7793 8.18373 13.6707 8.10841C13.2879 7.83066 13.0603 7.75534 12.7345 7.78829C11.9897 7.86362 11.6017 7.86832 11.2707 7.80242C10.8414 7.71768 10.6707 7.76476 10.2414 8.07075L9.93621 8.2873L9.90517 8.07546C9.85345 7.78358 9.91552 7.45405 10.0655 7.21867C10.2052 6.99742 10.3862 6.8656 10.6707 6.78557C10.7897 6.74791 10.8931 6.6773 10.9397 6.59727C11.0793 6.35247 11.519 6.0559 11.8707 5.97587C12.1086 5.91938 12.4603 5.97587 12.8121 6.1218ZM6.92586 7.57645C7.7431 7.80712 8.17759 8.4144 8.01724 9.10171L7.96034 9.36063L7.62414 9.1535C7.2569 8.92753 7.1431 8.9087 6.66724 8.99815C6.46552 9.0311 6.24828 9.0311 5.89138 8.98873C5.31207 8.92282 5.22414 8.93695 4.87241 9.1535C4.72759 9.24294 4.59828 9.29943 4.58276 9.28531C4.52069 9.23353 4.5569 8.57917 4.62931 8.3532C4.71207 8.09899 4.8931 7.84949 5.07931 7.72709C5.46724 7.4823 6.33621 7.41168 6.92586 7.57645ZM19.3655 7.65648C19.4483 7.8542 19.3655 9.12996 19.2621 9.28531C19.2466 9.30414 19.0966 9.23353 18.9207 9.13467C18.5741 8.92753 18.4707 8.91341 17.8966 8.99344C17.6638 9.02639 17.4259 9.02639 17.1207 8.98402C16.5879 8.91812 16.5 8.93695 16.1534 9.17703L15.8845 9.36534L15.8431 9.19116C15.7241 8.67803 15.8431 8.23081 16.1741 7.94364C16.3966 7.75534 16.5621 7.7318 17.2759 7.76946C17.9638 7.81183 18.6569 7.76476 19.0345 7.65648C19.3397 7.57174 19.3293 7.57174 19.3655 7.65648ZM11.6793 8.35791C11.9328 8.37674 12.2224 8.36262 12.481 8.32025C12.9621 8.24493 13.0862 8.28259 13.4431 8.61683C13.6655 8.82396 13.6655 8.82396 13.6397 9.10171C13.5828 9.69487 13.0862 10.2927 12.4862 10.4952C11.7 10.7635 10.7845 10.4434 10.4069 9.76548C10.2517 9.49244 10.1224 9.04993 10.1586 8.92282C10.2052 8.75335 10.4379 8.53209 10.7172 8.38145C10.9241 8.27788 11.0069 8.25905 11.1259 8.2873C11.2086 8.31084 11.4569 8.33908 11.6793 8.35791ZM7.5569 9.75607C7.7431 9.93496 7.76379 9.97262 7.73276 10.1186C7.58276 10.9094 7.00862 11.3943 6.23276 11.3943C5.54483 11.3943 4.97069 10.9188 4.80517 10.2174C4.75345 9.99145 4.75862 9.96791 4.88793 9.81256C5.1569 9.49715 5.26034 9.4642 6.02069 9.49715C6.40345 9.51127 6.77586 9.50186 6.87931 9.47832C7.1069 9.42183 7.26724 9.48774 7.5569 9.75607ZM17.4621 9.53481C17.4879 9.53952 17.731 9.5254 17.9897 9.50186L18.4707 9.45478L18.6621 9.58659C19.0034 9.82197 19.0397 9.88788 19.0138 10.1515C18.9724 10.6129 18.6259 11.0742 18.181 11.2766C17.881 11.4131 17.2241 11.4084 16.9397 11.2672C16.4948 11.0507 16.1586 10.6176 16.1017 10.175C16.0759 9.98203 16.0914 9.93496 16.2207 9.79844C16.4793 9.51598 16.6345 9.45949 17.0431 9.49244C17.2448 9.50657 17.431 9.5254 17.4621 9.53481ZM12.4345 11.1825C12.4862 11.3567 12.4655 11.3849 12.1862 11.5261L11.9069 11.6626L11.6534 11.5308C11.519 11.4555 11.3845 11.3896 11.3638 11.3849C11.3431 11.3755 11.3483 11.3049 11.3793 11.2295L11.431 11.0883H11.9224C12.3672 11.0883 12.4086 11.0977 12.4345 11.1825ZM10.9448 13.5127C11.1517 14.5107 11.3121 15.3299 11.3017 15.3393C11.2914 15.3487 11.0534 14.9815 10.769 14.5296C10.4845 14.0729 10.2621 13.6963 10.2828 13.6869C10.3034 13.6728 10.381 13.654 10.4586 13.6351C10.5362 13.621 10.6397 13.5551 10.6862 13.4939C10.7793 13.3574 10.8 13.3903 10.231 12.5571C10.0086 12.2276 9.81207 11.9263 9.79655 11.8886C9.76034 11.8086 10.1845 11.6768 10.4224 11.6909L10.5724 11.7003L10.9448 13.5127ZM13.8983 11.7803L14.069 11.8462L13.5776 12.5712C13.3086 12.9714 13.0862 13.3244 13.0862 13.3621C13.0862 13.4986 13.2 13.6022 13.3759 13.6351C13.4793 13.654 13.5517 13.6916 13.5414 13.7246C13.5155 13.8234 12.5431 15.344 12.5276 15.3063C12.5224 15.2875 12.6776 14.4825 12.8793 13.5174C13.0759 12.5477 13.2414 11.738 13.2414 11.7097C13.2414 11.6485 13.681 11.6956 13.8983 11.7803ZM11.2966 12.011C11.2552 12.0722 11.1724 12.0157 11.1724 11.9263C11.1724 11.8651 11.1879 11.8651 11.25 11.9121C11.2914 11.9451 11.3121 11.9875 11.2966 12.011ZM17.9586 11.9357C18.0414 12.0345 17.9948 12.1005 17.7828 12.1993L17.5655 12.2982L17.3431 12.1993C17.1207 12.1005 17.0948 12.0722 17.1466 11.9498C17.1776 11.8745 17.9017 11.8604 17.9586 11.9357ZM6.67241 11.931C6.67241 11.9404 6.68793 11.9875 6.70345 12.0251C6.72931 12.0816 6.67241 12.124 6.49655 12.1993C6.25862 12.2935 6.24828 12.2935 6.06207 12.2087C5.93793 12.1569 5.86552 12.0863 5.85517 12.0157C5.83965 11.9169 5.85 11.9121 6.25345 11.9121C6.48621 11.9121 6.67241 11.9216 6.67241 11.931ZM12.6207 11.9828C12.6207 12.0251 12.5897 12.0393 12.5431 12.0251C12.5017 12.0063 12.481 11.9781 12.4966 11.9545C12.5379 11.8886 12.6207 11.9074 12.6207 11.9828ZM9.61034 12.6136C10.0241 13.2209 10.0241 13.2067 9.81724 13.2585C9.72414 13.2821 9.61552 13.3574 9.57414 13.4233C9.5069 13.5363 9.5431 13.6022 10.4431 15.0286C10.9552 15.8477 11.3793 16.5397 11.3793 16.568C11.3793 16.6056 10.8103 16.6197 9.5431 16.6197C7.81552 16.6197 7.7069 16.615 7.7069 16.535C7.7069 16.4879 7.86724 15.7159 8.06379 14.8214C8.46207 13.0184 8.54483 12.8066 8.98448 12.3782C9.11379 12.2511 9.23793 12.1475 9.25862 12.1475C9.27931 12.1475 9.43448 12.3547 9.61034 12.6136ZM14.85 12.3688C15.2741 12.8113 15.3828 13.0938 15.7759 14.9156C15.9776 15.8242 16.1379 16.5821 16.1379 16.5962C16.1379 16.6103 15.3 16.6197 14.2759 16.6197C13.2517 16.6197 12.4138 16.6103 12.4138 16.5962C12.4138 16.5821 12.8328 15.9042 13.3448 15.0898C13.8569 14.2754 14.2759 13.5598 14.2759 13.4939C14.2759 13.3621 14.2034 13.3009 13.9759 13.2444L13.8103 13.2067L14.0483 12.8537C14.4414 12.2652 14.5345 12.1475 14.581 12.1475C14.6069 12.1475 14.7259 12.2464 14.85 12.3688ZM12.2379 12.4488L12.5017 12.6089L12.2224 13.9458C12.0724 14.6755 11.9483 15.311 11.9431 15.3487C11.9431 15.3864 11.9172 15.3675 11.8966 15.3016C11.8397 15.1604 11.3172 12.6136 11.3379 12.5948C11.4155 12.5336 11.881 12.2888 11.9224 12.2888C11.9534 12.2888 12.0931 12.3594 12.2379 12.4488ZM5.61207 12.5712C6.12931 12.8207 6.31034 12.8207 6.87931 12.5665C7.26724 12.397 7.34483 12.3782 7.55172 12.4064C7.68103 12.4253 7.86207 12.4676 7.95 12.5006L8.12069 12.5665L7.98621 12.8866C7.91379 13.0608 7.68621 13.9694 7.47931 14.9015L7.1069 16.5962H5.33276H3.56379L3.24828 15.9419L2.92759 15.2875L3.10345 14.4919C3.20172 14.0212 3.32586 13.5975 3.39828 13.4657C3.6569 12.9949 4.09655 12.6512 4.68103 12.4676C5.05862 12.35 5.17759 12.3641 5.61207 12.5712ZM16.9345 12.5759C17.3069 12.7454 17.3845 12.7642 17.6379 12.7454C17.8448 12.7313 18.0155 12.6795 18.2586 12.5524C18.5586 12.3923 18.6207 12.3782 18.8534 12.4017C19.2103 12.4394 19.7121 12.6748 20.0069 12.9431C20.4103 13.3103 20.5138 13.541 20.7466 14.5861L20.9534 15.5276L20.6845 16.0737L20.4155 16.6197H18.569H16.7224L16.6655 16.3702C16.6345 16.2384 16.5 15.617 16.3707 14.9956C16.1172 13.7952 15.9259 13.0608 15.7914 12.7548C15.75 12.6512 15.7241 12.5524 15.7448 12.5383C15.7862 12.4959 16.2466 12.3876 16.3914 12.3876C16.4586 12.3829 16.7017 12.4676 16.9345 12.5759ZM1.08621 13.089C1.28793 13.1832 1.46379 13.5033 2.50862 15.6782C3.79138 18.3474 3.87931 18.5028 4.14828 18.7146C4.36034 18.8794 6.30517 19.6797 6.49655 19.6797C6.55345 19.6797 6.62586 19.6561 6.66207 19.6232C6.73966 19.5526 6.74483 19.3407 6.66724 19.2701C6.63103 19.2372 6.16552 19.0395 5.62241 18.8229C4.5569 18.4039 4.34483 18.2674 4.24138 17.952C4.15345 17.6884 4.26207 17.5142 4.51552 17.5142C4.61379 17.5142 5.36379 17.7825 6.38793 18.1827C7.98621 18.8135 8.11034 18.87 8.35345 19.0959C8.59138 19.3172 9.08276 20.0045 9.13966 20.1928C9.15517 20.254 8.85517 20.5412 8.01724 21.2614C7.38621 21.8028 6.8431 22.25 6.81207 22.2594C6.69828 22.2783 2.66897 19.3454 2.35862 19.0112C2.26034 18.9076 2.13621 18.7429 2.08966 18.6487C1.97069 18.4275 0.568965 13.4421 0.568965 13.2444C0.568965 13.0137 0.786207 12.9525 1.08621 13.089ZM23.3328 13.042C23.3948 13.0749 23.431 13.1408 23.431 13.235C23.431 13.4468 22.05 18.3427 21.9103 18.6205C21.8431 18.7523 21.719 18.9359 21.6259 19.0347C21.2948 19.3737 17.2966 22.2783 17.1879 22.2594C17.0948 22.2406 14.8448 20.2917 14.8448 20.2305C14.8448 20.1034 15.4034 19.3078 15.6466 19.0912C15.8845 18.8747 16.0345 18.8041 17.6121 18.1827C18.6 17.7966 19.3862 17.5142 19.4793 17.5142C19.6862 17.5142 19.7793 17.613 19.769 17.8249C19.7586 18.0367 19.5931 18.2815 19.381 18.4039C19.2879 18.451 18.8586 18.6346 18.4241 18.8041C17.4207 19.1995 17.3431 19.2372 17.2759 19.3549C17.1983 19.482 17.3328 19.6797 17.4983 19.6797C17.6534 19.6797 19.5724 18.9123 19.7793 18.7664C19.8724 18.7052 20.0069 18.5734 20.0845 18.4698C20.1621 18.3663 20.7621 17.1752 21.419 15.8147C22.1534 14.2942 22.6603 13.2962 22.7483 13.2162C22.8621 13.1079 22.9448 13.0702 23.2138 12.9996C23.2241 12.9949 23.2759 13.0184 23.3328 13.042ZM3.97241 17.1423C3.96207 17.1705 3.93103 17.1894 3.90517 17.1894C3.87931 17.1894 3.84828 17.1705 3.83793 17.1423C3.82759 17.114 3.85862 17.0905 3.90517 17.0905C3.95172 17.0905 3.98276 17.114 3.97241 17.1423ZM20.1724 17.1376C20.1724 17.1611 20.1362 17.1847 20.0948 17.1847C20.0534 17.1847 20.0172 17.1611 20.0172 17.1376C20.0172 17.1093 20.0534 17.0905 20.0948 17.0905C20.1362 17.0905 20.1724 17.1093 20.1724 17.1376ZM10.3552 20.7012C10.5776 20.9037 10.7586 21.0873 10.7586 21.1155C10.7586 21.1767 7.82586 23.7 7.73276 23.7188C7.69655 23.7282 7.48966 23.5587 7.27241 23.3469L6.86897 22.9609L7.14828 22.7114C7.58793 22.3112 9.90517 20.3387 9.93103 20.3387C9.94138 20.3387 10.1379 20.5035 10.3552 20.7012ZM15.5897 21.6286C16.4017 22.3206 17.069 22.9138 17.069 22.9468C17.069 23.0362 16.3397 23.7329 16.2672 23.7188C16.1741 23.7 13.2414 21.1814 13.2414 21.1249C13.2414 21.0496 13.9862 20.3435 14.0534 20.3529C14.0845 20.3576 14.7776 20.9319 15.5897 21.6286Z" fill="#5D6679"/>
</svg>
