<svg width="24" height="25" viewBox="0 0 24 25" fill="none" xmlns="http://www.w3.org/2000/svg">
<path d="M22.0099 15.801L22.0106 15.8036L22.0106 15.8036C22.1772 16.4285 21.8182 17.1072 21.1847 17.2296L15.2475 18.7944C15.3213 19.9608 14.5687 21.05 13.4001 21.3541C12.2319 21.681 11.0178 21.1079 10.5096 20.0673L9.5302 20.3344L9.52916 20.3347C9.32165 20.3864 9.10596 20.283 9.05162 20.067C9.05158 20.0668 9.05154 20.0666 9.05149 20.0665L5.05553 5.35289L3.15649 5.82774L3.14436 5.77923L3.15649 5.82774C2.66731 5.95005 2.13052 5.65718 1.98397 5.14409M22.0099 15.801L2.03205 5.13036M22.0099 15.801L22.0098 15.8007L21.5698 14.1796C21.5697 14.1794 21.5697 14.1792 21.5696 14.179C21.5153 13.963 21.2996 13.8596 21.0921 13.9114L21.0916 13.9115L19.4478 14.3394L17.6069 7.50543C17.6069 7.50529 17.6068 7.50515 17.6068 7.50501C17.5525 7.28895 17.3368 7.18545 17.1293 7.23724L17.1284 7.23746L13.5382 8.19788L12.5551 4.56231C12.555 4.56215 12.555 4.56199 12.5549 4.56184C12.5006 4.34581 12.2849 4.24233 12.0774 4.29412L12.0768 4.29427L7.44378 5.50987M22.0099 15.801L7.44378 5.50987M1.98397 5.14409L2.03205 5.13036M1.98397 5.14409C1.98397 5.14409 1.98397 5.1441 1.98397 5.1441L2.03205 5.13036M1.98397 5.14409C1.83665 4.62839 2.15656 4.11582 2.66719 3.96997L2.66886 3.9695L2.66887 3.96953L6.39908 3.04285M2.03205 5.13036C1.89305 4.64379 2.19418 4.15707 2.68092 4.01805L6.41194 3.09117M6.39908 3.04285C6.3988 3.04293 6.39851 3.04301 6.39823 3.04309L6.41194 3.09117M6.39908 3.04285L6.39988 3.04265L6.41194 3.09117M6.39908 3.04285C6.58681 2.98983 6.80062 3.09697 6.85428 3.31043L6.85417 3.31004L6.80587 3.32298M6.41194 3.09117C6.57407 3.04494 6.75948 3.13757 6.80587 3.32298M6.80587 3.32298L6.85438 3.31084M6.80587 3.32298L7.40836 5.57086L6.85438 3.31084M6.85438 3.31084L7.44378 5.50987M6.85438 3.31084L7.44378 5.50987M5.69517 4.81624L5.69525 4.81622L5.69435 4.81354C5.64251 4.65818 5.48703 4.52444 5.3225 4.52444H5.25299V4.52296L5.24109 4.52588L2.97008 5.0821L2.97007 5.08206L2.96825 5.08258C2.90005 5.10205 2.84719 5.0904 2.80848 5.06495C2.76862 5.03875 2.7395 4.99502 2.72618 4.94416C2.69936 4.84178 2.73871 4.72902 2.85649 4.69208L6.21414 3.84699L9.86253 17.2859C9.86257 17.2861 9.86261 17.2863 9.86265 17.2864C9.91699 17.5024 10.1327 17.6059 10.3402 17.5541L10.3406 17.554L10.8069 17.4331C10.3549 17.9783 10.1769 18.7 10.2718 19.368L9.69165 19.508L5.69517 4.81624ZM11.0945 19.5301L11.0944 19.53C10.8015 18.5838 11.3419 17.616 12.2876 17.3684L12.2881 17.3682C13.2795 17.0979 14.2476 17.7518 14.4274 18.6508L14.4274 18.6508L14.4276 18.6517C14.6297 19.573 14.0464 20.4067 13.1883 20.6553C12.2867 20.9031 11.3643 20.4071 11.0945 19.5301ZM20.9751 16.5303L15.0633 18.0944C14.8146 17.4562 14.2791 16.939 13.6321 16.6995C14.2558 16.5341 14.9235 16.3572 15.6115 16.175C17.3832 15.7058 19.2901 15.2008 20.9298 14.7625L21.2644 16.0119L21.2645 16.0121C21.3269 16.2414 21.2027 16.4676 20.9761 16.53C20.9759 16.5301 20.9757 16.5301 20.9755 16.5302L20.9751 16.5303ZM18.7252 14.5502L10.5024 16.7261L8.74419 10.2643L16.967 8.08842L18.7252 14.5502ZM7.65505 6.25524L11.915 5.12224L12.7928 8.38586L8.53271 9.51886L7.65505 6.25524Z" fill="#5D6679" stroke="#5D6679" stroke-width="0.1"/>
</svg>
