<svg width="24" height="25" viewBox="0 0 24 25" fill="none" xmlns="http://www.w3.org/2000/svg">
<g clip-path="url(#clip0_470_29076)">
<path d="M11.5067 0.303274C11.1129 0.401711 10.8176 0.570461 10.5176 0.870461C10.0348 1.35327 9.88949 1.78452 9.88949 2.75952V3.35484L9.52387 3.49077C7.32074 4.3064 5.63793 6.11109 5.00981 8.34702C4.78949 9.11577 4.77543 9.32202 4.73324 11.5345C4.69106 13.8408 4.66762 14.1361 4.40043 15.2376C4.10981 16.4236 3.58012 17.6283 2.89106 18.6689C2.59106 19.1236 2.31918 19.4705 1.62074 20.2767C1.3395 20.6048 1.44262 21.1345 1.82699 21.3314C2.00512 21.4205 2.09418 21.4251 5.28637 21.4251H8.56762L8.59574 21.5845C8.71762 22.2361 9.28949 23.0798 9.93637 23.558C10.2223 23.7689 10.7379 24.0173 11.1082 24.1251C11.4879 24.233 12.4114 24.247 12.7957 24.1486C13.977 23.8533 14.9567 22.9533 15.3129 21.8423L15.4442 21.4251H18.7161C21.8989 21.4251 21.9926 21.4205 22.1707 21.3314C22.2926 21.2705 22.3911 21.172 22.452 21.0501C22.6301 20.7033 22.5598 20.4548 22.1754 20.0423C20.9801 18.7626 20.0286 16.9955 19.5973 15.2376C19.3301 14.1501 19.302 13.8455 19.2645 11.5345C19.2223 9.31734 19.2082 9.12046 18.9879 8.34234C18.3645 6.11577 16.602 4.23609 14.427 3.46733L14.1082 3.35484V2.75952C14.1082 1.78921 13.9629 1.35327 13.4754 0.865774C12.9504 0.336086 12.2145 0.125149 11.5067 0.303274ZM12.327 1.73765C12.6082 1.88296 12.702 2.10327 12.702 2.63765V3.07359H11.9989H11.2957V2.62827C11.3004 2.10327 11.3707 1.92515 11.652 1.7564C11.877 1.62046 12.0832 1.61577 12.327 1.73765ZM12.8426 4.52671C13.5176 4.62984 13.9348 4.76109 14.5536 5.06109C16.2082 5.87202 17.3286 7.31108 17.7411 9.1439C17.8067 9.42984 17.8301 9.89859 17.8582 11.6283C17.8911 13.4095 17.9098 13.8595 17.9895 14.3705C18.2895 16.2736 18.9223 17.9283 19.9348 19.4423C20.1176 19.7189 20.2817 19.9626 20.2864 19.9814C20.2957 20.0048 16.5645 20.0189 11.9989 20.0189C7.43324 20.0189 3.70199 20.0048 3.71137 19.9814C3.72074 19.9626 3.88012 19.7189 4.06293 19.4423C5.07074 17.933 5.71293 16.2548 6.00824 14.3751C6.08793 13.8642 6.10668 13.4048 6.13949 11.6283C6.16762 9.89859 6.19106 9.42984 6.25668 9.1439C6.51918 7.97202 7.04418 7.01109 7.86918 6.18609C8.38949 5.67046 8.86762 5.33296 9.53324 5.01421C10.5598 4.52671 11.727 4.35327 12.8426 4.52671ZM13.9676 21.4533C13.9676 21.5705 13.6254 22.0814 13.4286 22.2595C12.6082 23.0095 11.4082 23.0189 10.5879 22.283C10.3676 22.0814 10.1145 21.7251 10.0536 21.5283L10.0254 21.4251H11.9942C13.0817 21.4251 13.9676 21.4392 13.9676 21.4533Z" fill="#5D6679"/>
<path d="M4.66797 2.76387C4.51797 2.86699 3.94609 3.48574 3.63203 3.89356C2.45547 5.42168 1.67734 7.40449 1.50391 9.33105C1.42891 10.1467 1.43828 10.4279 1.54609 10.6436C1.65391 10.8545 1.92109 11.0186 2.15547 11.0186C2.56797 11.0186 2.85859 10.6717 2.85859 10.1795C2.85859 9.7623 2.94297 8.98887 3.05078 8.46387C3.34609 7.00137 4.11953 5.44043 5.08984 4.34824C5.68984 3.67793 5.71797 3.63106 5.71797 3.35918C5.71797 3.09199 5.61953 2.90449 5.40859 2.76387C5.22578 2.64199 4.85078 2.64668 4.66797 2.76387Z" fill="#5D6679"/>
<path d="M18.5906 2.76387C18.3797 2.90449 18.2812 3.09199 18.2812 3.36387C18.2812 3.63105 18.2906 3.64512 18.9281 4.37168C19.8937 5.46855 20.6578 7.01543 20.9484 8.46387C21.0562 8.98887 21.1406 9.7623 21.1406 10.1795C21.1406 10.6717 21.4312 11.0186 21.8437 11.0186C22.0781 11.0186 22.3453 10.8545 22.4531 10.6436C22.5609 10.4326 22.5703 10.142 22.5 9.35449C22.3172 7.38574 21.5156 5.35605 20.325 3.84668C19.9547 3.37793 19.5141 2.89512 19.35 2.77793C19.1531 2.64199 18.7875 2.6373 18.5906 2.76387Z" fill="#5D6679"/>
</g>
<defs>
<clipPath id="clip0_470_29076">
<rect width="24" height="24" fill="white" transform="translate(0 0.237305)"/>
</clipPath>
</defs>
</svg>
