<svg width="24" height="25" viewBox="0 0 24 25" fill="none" xmlns="http://www.w3.org/2000/svg">
<path d="M7.187 21.6147L7.18698 21.6147L7.18863 21.6163C7.21922 21.6469 7.25378 21.6739 7.2959 21.6926C7.33846 21.7115 7.38353 21.7197 7.43226 21.7197H21.753C21.8498 21.7197 21.9382 21.687 22.0028 21.6225C22.0673 21.558 22.1 21.4696 22.1 21.3727L22.0998 7.05194C22.0998 6.92419 22.0357 6.80797 21.9191 6.76351L15.2813 2.82991C15.2551 2.79485 15.2202 2.77459 15.1847 2.76448C15.1493 2.75438 15.1121 2.75445 15.0901 2.75449L15.0863 2.75449H2.24698C2.15022 2.75449 2.06177 2.78716 1.99725 2.85164C1.93273 2.91613 1.9 3.0046 1.9 3.10147V15.9408C1.9 15.9894 1.90821 16.0345 1.92709 16.077C1.94561 16.1188 1.97221 16.1531 2.0025 16.1836C2.00279 16.1838 2.00307 16.1841 2.00335 16.1844L7.187 21.6147ZM21.406 21.0257H7.77908V7.39879H12.5173V11.0024C12.5173 11.0992 12.5499 11.1876 12.6144 11.2522C12.6789 11.3167 12.7674 11.3494 12.8643 11.3494H16.0741C16.1709 11.3494 16.2593 11.3167 16.3239 11.2523C16.3884 11.1878 16.4211 11.0993 16.4211 11.0024L16.4209 7.39879H21.406L21.406 21.0257ZM13.2111 10.6555V7.39888H15.7272V10.6555H13.2111ZM11.5402 3.44823H14.9849L20.4748 6.70488H16.4253L11.5402 3.44823ZM12.9685 6.70505L8.08336 3.44838L10.2908 3.44823L15.1759 6.7049L12.9685 6.70505ZM7.54007 6.70505L3.28304 3.44823L6.83396 3.44823L11.7191 6.70489L7.54007 6.70505ZM2.59407 15.8018V3.79732L7.08535 7.22484V20.5058L2.59407 15.8018Z" fill="#5D6679" stroke="#5D6679" stroke-width="0.2"/>
</svg>
