<svg width="24" height="25" viewBox="0 0 24 25" fill="none" xmlns="http://www.w3.org/2000/svg">
<g clip-path="url(#clip0_470_28963)">
<path d="M10.9732 0.664042C8.74198 0.91248 6.73104 1.86404 5.10917 3.42967L4.7576 3.76717L3.92323 4.01561C3.46385 4.15154 3.04667 4.29686 2.9951 4.34373C2.86385 4.46092 2.87792 4.71404 3.02323 4.85467C3.15448 4.99061 3.22479 4.99529 3.5576 4.89686C3.69354 4.85936 3.8201 4.83123 3.84354 4.84061C3.86698 4.84998 3.7826 5.01873 3.65135 5.21561C2.84979 6.45779 2.29667 8.10311 2.15604 9.63592C2.08104 10.4844 2.08573 10.5828 2.24979 10.7469C2.37167 10.864 2.41854 10.8828 2.5451 10.8594C2.79823 10.8125 2.84042 10.714 2.87792 10.0719C2.97635 8.39373 3.47323 6.85154 4.3451 5.52029C4.46229 5.34686 4.57479 5.20623 4.59823 5.20623C4.62167 5.20623 4.64042 5.38436 4.64042 5.60467C4.64042 5.97029 4.64979 6.01717 4.7576 6.12029C4.9076 6.27498 5.12323 6.27498 5.27792 6.12029L5.39979 5.99842L5.36698 5.12186L5.32948 4.24529L5.72323 3.87029C8.76542 1.00154 13.3076 0.551542 16.8654 2.77342C17.3201 3.05467 17.3435 3.07342 17.217 3.10154C17.1467 3.12029 16.9545 3.13436 16.7904 3.13904C16.542 3.14373 16.4764 3.16248 16.3826 3.26092C16.167 3.47186 16.2701 3.81873 16.5607 3.87029C16.6451 3.87967 17.1139 3.87498 17.6107 3.85623C18.4732 3.82342 18.5154 3.81873 18.6279 3.71092C18.6982 3.64529 18.7498 3.54686 18.7498 3.47654C18.7498 3.27498 18.2529 1.60154 18.1639 1.50311C18.0326 1.35779 17.7514 1.37654 17.6295 1.53123C17.5123 1.68123 17.5076 1.76092 17.606 2.09842C17.6482 2.23904 17.6717 2.36092 17.6623 2.37029C17.6529 2.37967 17.5029 2.29061 17.3248 2.17342C16.317 1.50779 14.9482 0.978106 13.617 0.748418C12.9654 0.635918 11.5967 0.59373 10.9732 0.664042Z" fill="#5D6679"/>
<path d="M11.5967 4.45137C10.7342 4.67637 10.1623 5.54355 10.317 6.39668C10.3686 6.6873 10.5139 7.02012 10.6779 7.22168L10.7717 7.33887L10.5045 7.48887C10.3592 7.56855 10.1389 7.72324 10.017 7.83105L9.79669 8.02793L9.55763 7.76543C9.42638 7.62012 9.19669 7.42793 9.04669 7.33418L8.77482 7.16543L8.90138 6.95918C9.38888 6.19043 9.08888 5.18262 8.25919 4.79355C7.88419 4.61543 7.39669 4.61543 7.02169 4.79355C6.18732 5.18262 5.89201 6.19043 6.37951 6.96387L6.51076 7.1748L6.31388 7.27324C5.83576 7.52168 5.28732 8.23887 5.12794 8.83887C5.02482 9.22324 5.04357 9.44824 5.18419 9.56074C5.30607 9.65449 5.35763 9.65918 7.15294 9.65918H8.99982V9.81855C8.99982 9.90762 9.04201 10.0248 9.08888 10.0857L9.17794 10.1982H11.9998H14.8217L14.9108 10.0857C14.9576 10.0248 14.9998 9.90762 14.9998 9.81855V9.65918H16.8467C18.642 9.65918 18.6936 9.65449 18.8154 9.56074C18.9139 9.48574 18.9373 9.4248 18.9373 9.27012C18.9326 8.59512 18.417 7.7373 17.7654 7.33418L17.4936 7.16543L17.6201 6.95918C17.9998 6.36855 17.9108 5.58574 17.4045 5.08418C16.8373 4.51699 15.8717 4.52168 15.2951 5.09824C14.8076 5.58574 14.7233 6.37324 15.0983 6.95918L15.2248 7.16543L14.9529 7.33418C14.8029 7.42793 14.5733 7.62012 14.442 7.76543L14.2029 8.02793L13.9826 7.83105C13.8608 7.72324 13.6404 7.56855 13.4951 7.48887L13.2279 7.33887L13.3217 7.22168C14.0201 6.35918 13.7248 5.04668 12.7264 4.57793C12.4311 4.4373 11.8826 4.37637 11.5967 4.45137ZM12.4029 5.24824C12.8061 5.43105 13.0404 5.90449 12.9373 6.33105C12.7498 7.10449 11.7654 7.33887 11.2639 6.72949C10.7483 6.10605 11.1936 5.15918 11.9998 5.15918C12.117 5.15918 12.2951 5.20137 12.4029 5.24824ZM7.96857 5.49668C8.23576 5.6373 8.35294 5.80137 8.38107 6.09199C8.39982 6.28418 8.38107 6.36387 8.28263 6.53262C7.88419 7.20762 6.82482 6.8748 6.89982 6.10137C6.92794 5.81543 7.08263 5.59512 7.33107 5.48262C7.58419 5.37012 7.72013 5.37012 7.96857 5.49668ZM16.6873 5.49668C16.9545 5.6373 17.0717 5.80137 17.0998 6.0873C17.1373 6.51855 16.8608 6.84668 16.4295 6.88418C16.0967 6.9123 15.8764 6.7998 15.717 6.53262C15.6186 6.36387 15.5998 6.28418 15.6186 6.09199C15.6326 5.96074 15.6842 5.79668 15.7358 5.73105C15.8436 5.58105 16.1904 5.39355 16.3592 5.39355C16.4248 5.39355 16.5748 5.44043 16.6873 5.49668ZM7.91701 7.69043C8.30607 7.75605 8.69044 7.95762 8.95763 8.23887C9.28107 8.57637 9.33263 8.66543 9.27169 8.79668L9.22013 8.90918H7.56076C6.23419 8.90918 5.90607 8.89512 5.90607 8.84824C5.90607 8.74512 6.16388 8.3748 6.37013 8.17324C6.61388 7.93887 6.98888 7.75137 7.32169 7.69512C7.45763 7.67168 7.57951 7.65293 7.59357 7.64824C7.60763 7.64824 7.75294 7.66699 7.91701 7.69043ZM16.9639 7.77012C17.2264 7.85918 17.4701 8.00918 17.6717 8.21543C17.8498 8.39355 18.0936 8.75918 18.0936 8.84824C18.0936 8.89512 17.7654 8.90918 16.4389 8.90918H14.7795L14.7279 8.79668C14.667 8.66543 14.7186 8.57637 15.042 8.23887C15.5342 7.72324 16.2748 7.54043 16.9639 7.77012ZM12.4733 7.89668C12.9045 7.99043 13.2373 8.16855 13.5795 8.50137C13.8514 8.75918 14.1561 9.24199 14.1561 9.41074C14.1561 9.4623 13.7717 9.47168 11.9998 9.47168C10.2279 9.47168 9.84357 9.4623 9.84357 9.41074C9.84357 9.24199 10.1483 8.75918 10.4201 8.50137C11.0061 7.93887 11.6998 7.73262 12.4733 7.89668Z" fill="#5D6679"/>
<path d="M19.9828 5.45005C19.8047 5.64692 19.8094 5.72661 20.0625 6.20473C20.6906 7.40473 21.0422 8.68442 21.1219 10.0954C21.1594 10.7141 21.2016 10.8125 21.4547 10.8594C21.5812 10.8829 21.6281 10.8641 21.7547 10.7422L21.9047 10.5922L21.8719 10.0438C21.7922 8.63286 21.4547 7.32973 20.85 6.1063C20.6953 5.79223 20.5125 5.49223 20.4469 5.44067C20.2922 5.3188 20.1 5.32348 19.9828 5.45005Z" fill="#5D6679"/>
<path d="M5.03393 10.0482C4.90268 10.1139 4.75268 10.2264 4.70112 10.2967C4.64956 10.3717 4.00268 11.8014 3.26206 13.4795C1.7855 16.817 1.79956 16.7795 2.00581 17.1873C2.14175 17.4592 2.22143 17.5107 3.00425 17.8623C3.59018 18.1295 3.773 18.1904 3.96518 18.1904C4.32143 18.1904 4.57925 18.0357 4.77612 17.7076C4.86518 17.5623 4.95893 17.4404 4.98706 17.4404C5.01518 17.4404 5.17456 17.5107 5.34331 17.5951C5.67612 17.7592 5.67143 17.7498 5.82612 18.4248L5.89643 18.7295L5.68081 19.1514C5.498 19.5217 5.46987 19.6107 5.46987 19.8873C5.4605 20.4826 5.8355 20.9654 6.42612 21.1295C6.69331 21.2045 6.70268 21.2139 6.70268 21.3592C6.70268 21.6029 6.87612 22.0061 7.06362 22.1982C7.40112 22.5451 7.89331 22.6764 8.36206 22.5451C8.54487 22.4936 8.54956 22.4982 8.70893 22.6857C8.798 22.7936 8.96675 22.9389 9.08393 23.0092C9.28081 23.1217 9.35112 23.1357 9.7355 23.1357L10.1621 23.1404L10.3214 23.342C10.4058 23.4545 10.5933 23.6139 10.7339 23.6936C10.9589 23.8201 11.0339 23.8389 11.3433 23.8389C11.723 23.8389 11.9339 23.7592 12.2292 23.5061L12.3792 23.3795L12.6417 23.5107C13.4105 23.9045 14.2871 23.5107 14.4839 22.6904L14.5402 22.4561H14.7371C15.2527 22.4561 15.7683 22.0857 15.9089 21.6076C15.9511 21.4717 15.9839 21.3264 15.9839 21.2842C15.9839 21.2232 16.0402 21.1951 16.2136 21.1764C16.898 21.0967 17.3714 20.5389 17.3386 19.8498L17.3246 19.5826L17.5402 19.4748C17.9246 19.2779 18.1824 18.8654 18.1871 18.4436V18.2045L18.6183 18.0264C18.9042 17.9045 19.0542 17.867 19.0683 17.8998C19.2043 18.3076 19.5277 18.5982 19.898 18.6404C20.1042 18.6686 20.2167 18.6404 20.7886 18.4248C21.6277 18.1107 21.8105 18.0076 21.9605 17.7451C22.2042 17.3373 22.2183 17.3889 20.8636 13.9014C19.6917 10.8732 19.6402 10.7561 19.4527 10.5873C19.0964 10.2686 18.773 10.2826 17.8355 10.6576C17.1089 10.9482 16.8792 11.1264 16.7855 11.4686C16.7152 11.7217 16.7199 11.7967 16.8464 12.1529C16.9777 12.5186 16.9917 12.4904 16.4996 12.7295C16.0824 12.9311 15.9042 12.9264 15.3371 12.6967C14.4464 12.3404 14.198 12.2748 13.6683 12.2514C13.0589 12.2186 12.7777 12.2748 12.2433 12.5232L11.8496 12.7014L11.6199 12.5889C11.0433 12.2936 10.2324 12.2607 9.28081 12.4904C8.54487 12.6686 8.33393 12.6545 7.76206 12.3967C7.50425 12.2795 7.28393 12.1764 7.27456 12.167C7.26518 12.1623 7.31206 12.0264 7.37768 11.867C7.56987 11.417 7.51831 11.0279 7.23237 10.7279C7.073 10.5592 5.75581 9.97793 5.48393 9.95449C5.32925 9.94043 5.20737 9.96856 5.03393 10.0482ZM6.04175 10.9482C6.6605 11.2201 6.74956 11.2764 6.74956 11.3748C6.74956 11.4451 4.1855 17.2857 4.1105 17.3795C4.0355 17.4779 3.91362 17.4498 3.34175 17.1967C2.69956 16.9154 2.67143 16.8967 2.67143 16.7701C2.67143 16.6717 5.21675 10.8639 5.30581 10.7467C5.38081 10.6576 5.423 10.6717 6.04175 10.9482ZM18.9746 11.1732C19.0777 11.2951 21.3324 17.1873 21.3183 17.2998C21.3042 17.3982 21.2433 17.4404 20.8824 17.5857C20.0433 17.9139 19.973 17.9373 19.898 17.8623C19.8605 17.8248 19.3027 16.4279 18.6558 14.7545C17.8074 12.5654 17.4933 11.6982 17.5214 11.6467C17.5683 11.5623 18.6652 11.117 18.8246 11.1123C18.8808 11.1123 18.9464 11.1404 18.9746 11.1732ZM7.72456 13.2076C8.14643 13.3998 8.61987 13.4045 9.45893 13.2264C9.82456 13.1467 10.2652 13.0811 10.4339 13.0811C10.7152 13.0811 11.1558 13.1561 11.1558 13.2076C11.1558 13.2451 10.3214 14.0232 10.0214 14.2623C9.85737 14.3936 9.45893 14.6748 9.13081 14.8904C8.80268 15.1061 8.50268 15.3311 8.46518 15.3873C8.30581 15.6123 8.39487 15.8467 8.79331 16.2404C9.30893 16.7561 9.81987 16.9529 10.5417 16.9107C11.0621 16.8779 11.2496 16.8311 12.2339 16.4467C13.1105 16.1045 13.5792 15.9967 13.8558 16.0717C14.0011 16.1139 16.7246 17.6326 17.2355 17.9561C17.4746 18.1107 17.5074 18.4857 17.3011 18.7154C17.1839 18.8467 17.1324 18.8701 16.9589 18.8654C16.7902 18.8607 16.5792 18.7623 15.6324 18.2232C15.0136 17.8717 14.4605 17.5811 14.4042 17.5811C14.348 17.5811 14.2449 17.6326 14.1746 17.6889C14.0199 17.8201 14.0011 18.0451 14.1324 18.1904C14.1792 18.242 14.7089 18.5607 15.3136 18.8982C15.9136 19.2357 16.448 19.5686 16.4996 19.6342C16.7246 19.9154 16.5277 20.3654 16.1621 20.4264C15.998 20.4498 15.8714 20.3889 14.5683 19.6576C13.7855 19.217 13.0964 18.8326 13.0402 18.8045C12.7214 18.6357 12.3746 19.0482 12.5808 19.3436C12.6183 19.3951 13.1902 19.742 13.8511 20.117C15.1308 20.8342 15.2339 20.9139 15.2339 21.2279C15.2339 21.3498 15.1917 21.4295 15.0699 21.5514C14.9199 21.7014 14.8824 21.7154 14.7042 21.692C14.4839 21.6686 13.0496 20.8764 12.7589 20.6232C12.4964 20.3889 12.2292 20.2951 11.8636 20.2951C11.573 20.2951 11.5402 20.2857 11.4933 20.1826C11.3996 19.9764 11.0855 19.6764 10.8511 19.5686C10.673 19.4842 10.5324 19.4561 10.2839 19.4561C9.9605 19.4561 9.94643 19.4514 9.91831 19.3342C9.89956 19.2686 9.78706 19.1139 9.66518 18.992C9.42143 18.7482 9.10737 18.6123 8.78862 18.6123C8.59643 18.6123 8.59175 18.6076 8.48862 18.3592C8.37612 18.0779 8.07612 17.7686 7.81831 17.6607C7.42456 17.4967 6.95581 17.5295 6.63706 17.7451L6.473 17.8529L6.40268 17.642C6.27612 17.2764 6.12143 17.1217 5.67612 16.9154C5.45581 16.817 5.26831 16.7232 5.25893 16.7186C5.25425 16.7092 5.61987 15.8607 6.07456 14.8342C6.52925 13.8029 6.90893 12.9404 6.923 12.9076C6.94643 12.8514 6.998 12.8701 7.72456 13.2076ZM14.5308 13.1936C15.4261 13.5451 15.6605 13.6107 16.0402 13.6154C16.3777 13.6201 16.4246 13.6061 16.823 13.4045L17.2496 13.1889L17.3386 13.4279C17.3855 13.5592 17.7277 14.4357 18.0886 15.3732C18.4542 16.3107 18.7449 17.0982 18.7355 17.1264C18.7308 17.1498 18.5292 17.2482 18.2949 17.3467L17.873 17.5248L17.7605 17.417C17.6386 17.3045 14.6386 15.5842 14.2683 15.4154C14.0855 15.3311 13.9542 15.3123 13.6167 15.317C13.1386 15.3217 12.9089 15.3826 11.9527 15.7529C10.6167 16.2779 10.1339 16.3061 9.53862 15.8936C9.42143 15.8139 9.32768 15.7295 9.32768 15.7107C9.32768 15.6873 9.44956 15.5936 9.59956 15.4951C10.1433 15.1342 10.7433 14.6561 11.2777 14.1498C11.9011 13.5639 12.3371 13.2592 12.7917 13.0951C13.0636 12.9967 13.1621 12.9873 13.5933 13.0014C14.0246 13.0154 14.1371 13.0389 14.5308 13.1936ZM7.62143 18.4061C7.673 18.4436 7.74331 18.5279 7.77143 18.5936C7.88393 18.8326 7.83706 18.9826 7.44331 19.6764C7.08237 20.2998 7.04018 20.3514 6.87612 20.4029C6.548 20.5014 6.20581 20.2342 6.21987 19.8826C6.21987 19.7701 6.32768 19.517 6.53862 19.1279C6.71206 18.8045 6.87612 18.5139 6.90893 18.4764C7.05425 18.2936 7.39643 18.2607 7.62143 18.4061ZM9.12143 19.5217C9.3605 19.7607 9.34175 19.8592 8.84956 20.8248C8.39956 21.7154 8.29175 21.8467 8.00112 21.8467C7.68706 21.8467 7.41987 21.5561 7.46675 21.2607C7.49487 21.0779 8.35268 19.5592 8.48862 19.442C8.54487 19.3951 8.66675 19.3623 8.77456 19.3623C8.92456 19.3623 8.99487 19.3951 9.12143 19.5217ZM10.5839 20.2717C10.7105 20.3373 10.7949 20.4592 10.8511 20.6654C10.8886 20.7967 10.2324 22.0904 10.0261 22.2779C9.81987 22.4748 9.55737 22.4607 9.34643 22.2498C9.23393 22.1373 9.18706 22.0482 9.18706 21.9498C9.18706 21.7717 9.90425 20.3748 10.0449 20.2764C10.1714 20.1873 10.4199 20.1873 10.5839 20.2717ZM12.2433 21.1857C12.3792 21.3076 12.398 21.3498 12.3933 21.5514C12.3933 21.7342 12.3417 21.8701 12.098 22.3154C11.7183 23.0139 11.6433 23.0889 11.3386 23.0889C11.1277 23.0889 11.0855 23.0701 10.9636 22.9342C10.8746 22.8357 10.8277 22.7326 10.8277 22.6342C10.8277 22.4654 11.4371 21.2607 11.5871 21.1295C11.7464 20.9982 12.0605 21.0217 12.2433 21.1857ZM13.4621 21.9404C13.6121 22.0342 13.6917 22.1232 13.7339 22.2404C13.8792 22.6904 13.4105 23.0842 12.9933 22.8545C12.7261 22.7092 12.7261 22.7326 12.9324 22.3248C13.0402 22.1139 13.1246 21.9123 13.1246 21.8701C13.1246 21.767 13.2136 21.7857 13.4621 21.9404Z" fill="#5D6679"/>
<path d="M5.50795 11.417C5.25951 11.6607 5.42357 12.0498 5.77514 12.0498C6.05639 12.0498 6.24389 11.6982 6.07982 11.4826C5.92514 11.2811 5.67201 11.2482 5.50795 11.417Z" fill="#5D6679"/>
<path d="M18.2299 11.8112C18.0706 11.9753 18.0565 12.13 18.1924 12.3034C18.3143 12.4581 18.6049 12.4769 18.7503 12.3315C18.8862 12.1956 18.8768 11.9378 18.7268 11.7925C18.5721 11.6378 18.3987 11.6425 18.2299 11.8112Z" fill="#5D6679"/>
</g>
<defs>
<clipPath id="clip0_470_28963">
<rect width="24" height="24" fill="white" transform="translate(0 0.237305)"/>
</clipPath>
</defs>
</svg>
