<svg width="24" height="25" viewBox="0 0 24 25" fill="none" xmlns="http://www.w3.org/2000/svg">
<path d="M0.267349 0.289295C0.0329739 0.425234 0.0470364 -0.273205 0.0470364 12.2377C0.0470364 24.8002 0.0329739 24.0596 0.276724 24.1909C0.337661 24.2237 3.21579 24.2377 9.14079 24.2377C18.8908 24.2377 18.1361 24.2659 18.2299 23.919C18.2627 23.8065 18.2814 22.2174 18.2814 19.2455V14.7455L21.1174 11.9096C23.7752 9.2518 23.9533 9.05961 23.9533 8.90961C23.9533 8.75961 23.8595 8.6518 22.7205 7.51742C21.5299 6.3268 21.483 6.28461 21.3049 6.28461C21.1314 6.28461 21.0799 6.3268 19.7017 7.70023L18.2814 9.11586V7.04867C18.2814 5.9143 18.2674 4.91117 18.2486 4.8268C18.2252 4.69555 17.822 4.26898 16.083 2.52055C14.9064 1.33461 13.8892 0.340858 13.8189 0.303358C13.7111 0.247108 12.6564 0.237734 7.02204 0.237734C2.57829 0.24242 0.323599 0.256483 0.267349 0.289295ZM13.2658 3.07367V5.07055L13.383 5.18305L13.4955 5.30023H15.4689H17.4377V7.62992V9.9643L15.3142 12.0971L13.1908 14.2299L12.8955 15.1299L12.6049 16.0346L8.01579 16.044L3.43141 16.058L3.30954 16.1705C3.10329 16.3627 3.15485 16.6909 3.40797 16.8221C3.48297 16.8643 4.65485 16.8784 7.91735 16.8784H12.3236L12.183 17.2862C12.0189 17.769 12.0142 17.858 12.1455 18.0221L12.2392 18.144H7.82829H3.41735L3.30485 18.2612C3.14079 18.4205 3.14547 18.6971 3.30954 18.8518L3.43141 18.9643H9.14079H14.8502L14.972 18.8518C15.122 18.7112 15.1361 18.444 15.0049 18.2799C14.9158 18.1674 14.9017 18.1674 13.8189 18.144L12.7267 18.1205L14.3674 17.5815L16.008 17.0424L16.7252 16.344L17.4377 15.6409V19.5174V23.394H9.16423H0.890787V12.2377V1.08148H7.07829H13.2658V3.07367ZM15.4924 3.09711L16.8517 4.45648H15.4783H14.1095V3.09711C14.1095 2.34711 14.1142 1.73773 14.1236 1.73773C14.1283 1.73773 14.747 2.34711 15.4924 3.09711ZM22.1627 8.1268L22.9689 8.93305L22.3361 9.56586L21.7033 10.1987L20.883 9.37836L20.0627 8.55805L20.6814 7.9393C21.0236 7.59711 21.3142 7.31586 21.3283 7.31586C21.3424 7.31586 21.7174 7.68148 22.1627 8.1268ZM18.4924 13.4096C17.0486 14.8534 15.8486 16.0346 15.8205 16.0346C15.7924 16.0346 15.4127 15.6737 14.9767 15.2377L14.1799 14.4409L16.8283 11.7924L19.4767 9.14398L20.297 9.9643L21.1174 10.7846L18.4924 13.4096ZM14.4283 15.8612L15.047 16.4799L14.147 16.7799C13.6502 16.944 13.2189 17.0893 13.1861 17.0987C13.158 17.1127 13.2705 16.6955 13.4439 16.1799C13.6174 15.6596 13.7674 15.2377 13.7814 15.2377C13.7955 15.2377 14.0861 15.519 14.4283 15.8612Z" fill="#5D6679"/>
<path d="M3.30411 14.0896C3.14942 14.2396 3.14942 14.4833 3.29942 14.6615L3.41192 14.7927L6.33692 14.8068C7.94005 14.8161 9.35098 14.8068 9.46348 14.7927C9.86192 14.7318 10.026 14.3568 9.76817 14.0943L9.64161 13.9724H6.52911H3.41661L3.30411 14.0896Z" fill="#5D6679"/>
<path d="M3.46925 20.2389C3.17393 20.3467 3.08956 20.7264 3.30987 20.9326L3.43643 21.0498H9.14112H14.8458L14.9724 20.9326C15.1411 20.7779 15.1411 20.5014 14.9724 20.342L14.8505 20.2295L9.19737 20.2201C6.08487 20.2154 3.50675 20.2248 3.46925 20.2389Z" fill="#5D6679"/>
</svg>
