<svg width="24" height="25" viewBox="0 0 24 25" fill="none" xmlns="http://www.w3.org/2000/svg">
<g clip-path="url(#clip0_470_29958)">
<path d="M10.3547 1.39648C10.1672 1.70117 9.94688 2.05742 9.86719 2.18398L9.71719 2.42305L8.22188 3.0418C7.40156 3.38398 6.68906 3.66055 6.64219 3.66055C6.59531 3.66055 6.20625 3.57617 5.77031 3.47305C5.33906 3.36992 4.95469 3.28555 4.91719 3.28555C4.83281 3.28555 3.04688 5.07148 3.04688 5.15586C3.04688 5.19336 3.13125 5.57773 3.23438 6.00898C3.3375 6.44492 3.42188 6.83398 3.42188 6.88086C3.42188 6.92773 3.14062 7.64023 2.79844 8.46523L2.17969 9.96523L1.39219 10.448L0.609375 10.9355V12.2387V13.5418L1.39219 14.0293L2.17969 14.5121L2.80313 16.0121L3.43125 17.5121L3.38906 17.7699C3.36563 17.9105 3.27188 18.3277 3.1875 18.698L3.02813 19.3684L3.95156 20.2871L4.87031 21.2105L5.54063 21.0512C5.91094 20.9668 6.32812 20.873 6.46875 20.8496L6.72656 20.8074L8.0625 21.3699L9.39844 21.9277L9.45 21.7355C9.52969 21.4402 9.65625 21.1777 10.0969 20.4184C10.3219 20.034 10.5094 19.7012 10.5141 19.6777C10.5188 19.659 10.3313 19.5887 10.0969 19.5277C7.99219 18.9746 6.24375 17.5496 5.25938 15.5902C4.05469 13.1809 4.2375 10.3168 5.74219 8.0668C6.825 6.44492 8.49375 5.30117 10.3828 4.88398C12.3703 4.44805 14.4656 4.8418 16.1719 5.97617C17.0109 6.53867 17.6859 7.21367 18.2578 8.0668C19.2047 9.48242 19.6453 11.1699 19.5 12.8715L19.4438 13.5418L20.2266 14.8918C20.6578 15.6371 21.0234 16.2605 21.0422 16.2793C21.0609 16.298 21.2391 15.909 21.4453 15.4168L21.8203 14.5168L22.6078 14.0293L23.3906 13.5418V12.2387V10.9355L22.6078 10.448L21.8203 9.96523L21.1969 8.46523L20.5688 6.96523L20.6109 6.70742C20.6344 6.5668 20.7281 6.14961 20.8125 5.7793L20.9719 5.10898L20.0484 4.19023L19.1297 3.2668L18.4594 3.42617C18.0891 3.51055 17.6719 3.6043 17.5312 3.62773L17.2734 3.66992L15.7734 3.0418L14.2734 2.41836L13.7906 1.63086L13.3031 0.848045H12H10.6922L10.3547 1.39648Z" fill="#5D6679"/>
<path d="M11.157 5.48756C9.62891 5.70318 8.31172 6.35006 7.22422 7.41881C6.26328 8.37037 5.62578 9.54224 5.33516 10.8922C5.18516 11.586 5.18516 12.8985 5.33516 13.5829C5.62578 14.9282 6.25859 16.1001 7.20078 17.0376C7.71641 17.5532 8.22266 17.9235 8.86953 18.261C9.58672 18.636 10.8617 19.0297 10.9648 18.9126C10.9836 18.8891 11.8836 17.3422 12.957 15.4719C14.0352 13.6016 14.9867 11.9844 15.0711 11.8719C15.3945 11.4501 15.943 11.136 16.4586 11.0751C17.3352 10.9719 18.0805 11.3141 18.568 12.0407L18.8117 12.4016L18.7836 11.8766C18.6898 10.2266 18.0523 8.75474 16.8992 7.55943C16.332 6.96881 15.7977 6.56099 15.1414 6.21881C14.1523 5.70787 13.3227 5.49693 12.1883 5.46412C11.7898 5.45474 11.3258 5.46412 11.157 5.48756Z" fill="#5D6679"/>
<path d="M16.3737 11.8346C16.1205 11.919 15.9002 12.0549 15.7221 12.2471C15.5018 12.4815 10.2565 21.5893 10.1815 21.8705C10.0174 22.4846 10.3362 23.1549 10.9455 23.4783L11.1799 23.6049L16.6643 23.619C22.894 23.633 22.444 23.6565 22.8987 23.2486C23.3205 22.8596 23.4846 22.2971 23.3112 21.8002C23.1752 21.4065 17.9862 12.444 17.7565 12.2049C17.4143 11.8533 16.8096 11.6893 16.3737 11.8346ZM17.1424 14.4643C17.5409 14.5815 17.9205 14.9846 18.019 15.3971C18.0612 15.5705 17.9205 18.3783 17.8549 18.669C17.7893 18.9643 17.5877 19.2315 17.3112 19.3955C17.1237 19.5033 17.0346 19.5268 16.758 19.5268C16.4815 19.5268 16.3924 19.5033 16.2049 19.3955C15.9612 19.2502 15.7315 18.9408 15.6612 18.6596C15.6377 18.5705 15.5862 17.8299 15.544 17.0143C15.4549 15.233 15.4643 15.1768 15.8674 14.783C16.2377 14.4221 16.6502 14.319 17.1424 14.4643ZM17.194 20.2346C17.6112 20.408 17.8784 20.8158 17.8784 21.2846C17.8784 21.9361 17.4143 22.4049 16.7674 22.4096C16.3127 22.4096 15.9565 22.194 15.7362 21.7768C15.6002 21.519 15.6002 21.0549 15.7409 20.7877C15.858 20.558 16.1815 20.2674 16.383 20.2111C16.6127 20.1408 17.0065 20.1549 17.194 20.2346Z" fill="#5D6679"/>
<path d="M16.4625 15.2336C16.2 15.4023 16.2 15.4164 16.2844 17.0195C16.3734 18.7492 16.3875 18.8008 16.7859 18.8008C16.9266 18.8008 17.1563 18.6133 17.1563 18.5008C17.1563 18.4727 17.1891 17.9008 17.2266 17.2305C17.325 15.4961 17.325 15.5055 17.1656 15.3273C16.9922 15.1352 16.6875 15.093 16.4625 15.2336Z" fill="#5D6679"/>
<path d="M16.6116 20.909C16.2132 21.073 16.3304 21.6777 16.7569 21.6777C17.0944 21.6777 17.2773 21.284 17.0523 21.0309C16.9304 20.8949 16.7569 20.848 16.6116 20.909Z" fill="#5D6679"/>
</g>
<defs>
<clipPath id="clip0_470_29958">
<rect width="24" height="24" fill="white" transform="translate(0 0.238281)"/>
</clipPath>
</defs>
</svg>
