<svg width="24" height="25" viewBox="0 0 24 25" fill="none" xmlns="http://www.w3.org/2000/svg">
<path d="M4.07716 0.308205C3.85685 0.341017 3.62716 0.39258 3.56154 0.416018C3.37872 0.48633 3.19122 0.701954 3.13497 0.908205C3.04122 1.26445 3.10685 1.35352 4.56935 2.81602L5.90529 4.15195V5.1457V6.14414H4.91154H3.9131L2.55372 4.78945C1.0256 3.26602 0.992785 3.24258 0.584973 3.40195C0.27091 3.51914 0.15841 3.72071 0.0693478 4.29258C-0.0197147 4.87852 -0.0197147 5.2957 0.0646603 5.86289C0.36466 7.83164 1.64435 9.28945 3.58497 9.88008C3.97404 9.99727 4.07247 10.0066 4.8506 10.0066C5.6006 10.0113 5.74122 9.99727 6.13029 9.89414L6.56622 9.78164L10.5084 13.7285L14.4553 17.6707L14.3428 18.1066C14.2397 18.4957 14.2256 18.6363 14.2303 19.3863C14.2303 20.1645 14.2397 20.2629 14.3568 20.652C14.9147 22.4848 16.2178 23.7082 18.06 24.1301C18.5287 24.2379 19.6772 24.2379 20.1553 24.1301C20.5631 24.0363 20.7928 23.8535 20.8584 23.5629C20.9428 23.1926 20.9006 23.141 19.4475 21.6832L18.0928 20.3238V19.3254V18.3316H19.0865H20.0803L21.4678 19.7098C22.724 20.9613 22.8694 21.0879 23.0428 21.116C23.2865 21.1582 23.5912 21.041 23.7178 20.8629C23.9709 20.5113 24.06 19.1145 23.8865 18.3082C23.4553 16.3348 21.9694 14.8816 19.9865 14.5113C19.3772 14.3941 18.3506 14.4316 17.8256 14.591L17.4459 14.7082L13.485 10.7426L9.52872 6.77695L9.64591 6.40195C9.78654 5.92852 9.8381 4.93008 9.74904 4.37696C9.46779 2.60977 8.28654 1.16133 6.6506 0.561329C6.43966 0.48633 6.11622 0.387892 5.93341 0.350391C5.45529 0.247267 4.55529 0.228518 4.07716 0.308205Z" fill="#5D6679"/>
<path d="M20.025 1.28828C17.8922 2.35234 17.7141 2.46484 17.6484 2.73672C17.6344 2.79297 17.5219 3.56641 17.3953 4.45234L17.1609 6.06484L15.5766 7.65391L13.9922 9.23828L14.4984 9.73984L15 10.2461L16.5844 8.66172L18.1734 7.07734L19.7859 6.84297C20.6719 6.71641 21.4453 6.60391 21.5016 6.58984C21.7734 6.52422 21.8859 6.34609 22.95 4.21328C23.6156 2.87734 24 2.05703 24 1.96797C24 1.71953 23.8781 1.53672 23.3109 0.955468C22.7531 0.378906 22.5469 0.238281 22.2703 0.238281C22.1813 0.238281 21.3609 0.622656 20.025 1.28828Z" fill="#5D6679"/>
<path d="M3.90848 15.3407C0.805359 18.4532 0.547546 18.7345 0.303796 19.2923C-0.132141 20.272 -0.0758914 21.5516 0.444421 22.4376L0.570984 22.6532L3.34598 19.8876C5.7413 17.4923 6.13973 17.1126 6.3038 17.0704C6.83348 16.9298 7.30692 17.4079 7.1663 17.9329C7.12411 18.0923 6.71161 18.5235 4.34911 20.8907L1.58348 23.6657L1.79911 23.7923C2.52567 24.2188 3.62255 24.3454 4.45223 24.1016C5.39442 23.8251 5.38973 23.8298 8.89598 20.3282L11.9991 17.2298L9.50067 14.7313L7.00692 12.2376L3.90848 15.3407Z" fill="#5D6679"/>
</svg>
