<svg width="24" height="25" viewBox="0 0 24 25" fill="none" xmlns="http://www.w3.org/2000/svg">
<g clip-path="url(#clip0_470_29918)">
<path d="M5.70468 0.585602C5.61093 0.623102 5.50312 0.674665 5.46562 0.702789C5.34843 0.801228 5.24999 1.06841 5.24999 1.28873V1.50435H3.94687H2.63906L2.35312 1.64967C2.02968 1.80904 1.77187 2.08092 1.66406 2.36685C1.56093 2.65748 0.0328053 12.6465 0.0609303 12.8669C0.0984303 13.1528 0.314055 13.4528 0.609368 13.6169L0.86718 13.7622L1.87968 13.7762L2.89218 13.795L2.96718 13.9497C3.08437 14.1934 3.35624 14.47 3.59999 14.5919L3.82031 14.6997L7.65937 14.7137L11.4937 14.7278L11.4609 14.8778C11.2828 15.7215 11.2453 16.6309 11.3672 17.3809C11.6437 19.0778 12.6937 20.6997 14.1562 21.6794C14.8219 22.1247 15.7687 22.5137 16.5469 22.6497C17.1 22.7481 18.1594 22.7247 18.7875 22.6028C20.1797 22.3309 21.1828 21.8153 22.1062 20.8919C23.0016 19.9965 23.5312 18.9934 23.8219 17.6575C23.9578 17.0294 23.9672 15.759 23.8453 15.1309C23.4703 13.27 22.4391 11.8075 20.8359 10.884C20.2828 10.5653 19.4531 10.27 18.6469 10.1059L18.5156 10.0825V6.29029C18.5156 3.5481 18.5016 2.4606 18.4594 2.34341C18.375 2.09498 18.1875 1.85592 17.9344 1.68248L17.7047 1.52779L16.9172 1.51373L16.125 1.49966V1.30279C16.125 0.698103 15.5437 0.34654 15.0797 0.669977C14.9062 0.796539 14.8453 0.923103 14.8125 1.2231L14.7891 1.48092L13.8656 1.49498L12.9375 1.50435V1.28404C12.9375 0.969978 12.8109 0.754353 12.5578 0.623102C12.3375 0.510603 12.1922 0.515289 11.9437 0.641853C11.7562 0.74029 11.6625 0.90904 11.6297 1.21373L11.6016 1.48092L10.6828 1.49498L9.75937 1.50435L9.74062 1.22779C9.71718 0.885603 9.61405 0.726227 9.34687 0.609039C9.17812 0.53404 9.1078 0.524666 8.96718 0.562164C8.60155 0.660603 8.43749 0.885603 8.43749 1.29342V1.50435L7.51405 1.49498L6.58593 1.48092L6.55781 1.2231C6.52499 0.913727 6.46874 0.791853 6.2953 0.669977C6.11249 0.538727 5.91093 0.510603 5.70468 0.585602ZM5.99531 1.10123C6.0328 1.14342 6.04687 1.36373 6.03749 1.76685L6.02343 2.37154H5.90624H5.78905L5.77499 1.74342C5.76562 1.26998 5.77968 1.10592 5.82187 1.0731C5.90624 1.02154 5.93437 1.02623 5.99531 1.10123ZM9.18281 1.10123C9.2203 1.14342 9.23437 1.36373 9.22499 1.76685L9.21093 2.37154H9.09374H8.97655L8.96249 1.76685C8.9578 1.42935 8.96249 1.12935 8.97187 1.09654C9.00468 1.01685 9.11718 1.01685 9.18281 1.10123ZM12.3703 1.10123C12.4078 1.14342 12.4219 1.36373 12.4125 1.76685L12.3984 2.37154H12.2812H12.1641L12.15 1.76685C12.1453 1.42935 12.15 1.12935 12.1594 1.09654C12.1922 1.01685 12.3047 1.01685 12.3703 1.10123ZM15.5578 1.10123C15.5953 1.14342 15.6094 1.36373 15.6 1.76685L15.5859 2.37154H15.4687H15.3516L15.3375 1.74342C15.3281 1.26998 15.3422 1.10592 15.3844 1.0731C15.4687 1.02154 15.4969 1.02623 15.5578 1.10123ZM3.02343 2.05279C2.80312 2.55435 2.81718 2.22623 2.81249 7.9356V13.27H1.94531C0.993743 13.27 0.843743 13.2372 0.665618 13.0122C0.609368 12.9419 0.562493 12.82 0.562493 12.745C0.562493 12.67 0.909368 10.3497 1.33593 7.58404C2.17968 2.14185 2.12343 2.39498 2.46562 2.16529C2.62031 2.05748 2.81718 1.98248 2.97187 1.97779C3.03749 1.9731 3.04687 1.99185 3.02343 2.05279ZM5.24999 2.20279C5.24999 2.91998 6.15937 3.16373 6.47812 2.53091C6.52499 2.44185 6.56249 2.28248 6.56249 2.16998V1.9731H7.49999H8.43749V2.18404C8.43749 3.10748 9.66562 3.14498 9.74062 2.22623L9.75937 1.9731H10.6875H11.6156L11.6344 2.25435C11.6484 2.48404 11.6812 2.55904 11.7891 2.67623C12.2391 3.14498 12.9375 2.81685 12.9375 2.13717V1.9731L13.8656 1.98248L14.7891 1.99654L14.8125 2.25435C14.8453 2.56373 14.9156 2.6856 15.1453 2.81216C15.3609 2.93404 15.5391 2.93873 15.75 2.82154C15.9609 2.71373 16.0734 2.51685 16.1109 2.20748L16.1391 1.96373L16.8328 1.98248C17.5969 1.99654 17.6766 2.02467 17.8969 2.3481C17.9906 2.48873 18 2.55904 18 3.07935V3.6606H10.6641H3.32812V3.13091C3.32812 2.46998 3.41718 2.24498 3.74999 2.07623C3.93281 1.98248 4.02656 1.9731 4.60312 1.9731H5.24999V2.20279ZM18 7.10592V10.0356H17.5172C16.0828 10.0356 14.6578 10.584 13.4625 11.5919C12.7828 12.1731 12.1219 13.0684 11.8031 13.8372L11.6531 14.2075L7.7578 14.1981L3.85781 14.184L3.68437 14.0481C3.58593 13.9731 3.46406 13.8278 3.41718 13.72C3.33281 13.5372 3.32812 13.3169 3.32812 8.84967V4.17623H10.6641H18V7.10592ZM18.6562 10.6262C19.7906 10.8419 20.85 11.395 21.7078 12.2247C23.0766 13.5512 23.6766 15.2622 23.4141 17.0903C23.0719 19.4856 21.6469 21.2247 19.4719 21.909C18.4547 22.2325 17.1562 22.2653 16.1109 21.9934C13.9594 21.445 12.4641 19.8747 11.9437 17.6294C11.8312 17.1325 11.7797 16.0028 11.8547 15.5387C12.0844 14.0434 12.9516 12.5997 14.1516 11.695C15.4641 10.7106 17.0812 10.3262 18.6562 10.6262Z" fill="#5D6679"/>
<path d="M5.31094 5.40004C5.23125 5.42348 5.10938 5.50785 5.04375 5.58754C4.92656 5.72817 4.92188 5.7516 4.92188 6.36098V6.9891L5.08125 7.16723L5.24063 7.34067L5.79844 7.35473C6.44531 7.37817 6.64688 7.31723 6.79688 7.07348C6.87656 6.94223 6.89063 6.8391 6.89063 6.3516C6.89063 5.83598 6.88125 5.77035 6.78281 5.62504C6.72188 5.53598 6.60469 5.44223 6.51563 5.40942C6.32344 5.34379 5.52656 5.3391 5.31094 5.40004ZM6.375 6.35629V6.84848H5.90625H5.4375V6.35629V5.8641H5.90625H6.375V6.35629Z" fill="#5D6679"/>
<path d="M8.49844 5.40004C8.41875 5.42348 8.29688 5.50785 8.23125 5.58754C8.11406 5.72817 8.10938 5.7516 8.10938 6.36098V6.9891L8.26875 7.16723L8.42813 7.34067L8.98594 7.35473C9.63281 7.37817 9.83438 7.31723 9.98438 7.07348C10.0641 6.94223 10.0781 6.8391 10.0781 6.3516C10.0781 5.83598 10.0688 5.77035 9.97031 5.62504C9.90938 5.53598 9.79219 5.44223 9.70313 5.40942C9.51094 5.34379 8.71406 5.3391 8.49844 5.40004ZM9.5625 6.35629V6.84848H9.09375H8.625V6.35629V5.8641H9.09375H9.5625V6.35629Z" fill="#5D6679"/>
<path d="M11.6438 5.4141C11.5641 5.4516 11.4563 5.53598 11.4 5.60629C11.3063 5.72348 11.2969 5.7891 11.2969 6.36098V6.9891L11.4563 7.16723L11.6156 7.34067L12.1734 7.35473C12.8203 7.37817 13.0219 7.31723 13.1719 7.07348C13.2516 6.94223 13.2656 6.8391 13.2656 6.3516C13.2656 5.83598 13.2563 5.77035 13.1578 5.62504C13.0969 5.53598 12.9797 5.44223 12.8906 5.40942C12.6656 5.33442 11.8266 5.33442 11.6438 5.4141ZM12.75 6.35629V6.85317L12.2719 6.8391L11.7891 6.82504L11.775 6.40785C11.7656 6.17817 11.7703 5.96254 11.7844 5.92504C11.8031 5.87817 11.9297 5.8641 12.2813 5.8641H12.75V6.35629Z" fill="#5D6679"/>
<path d="M14.8313 5.4141C14.7516 5.4516 14.6438 5.53598 14.5875 5.60629C14.4938 5.72348 14.4844 5.79379 14.4844 6.34223C14.4844 7.25629 14.5453 7.3266 15.375 7.35473C16.0078 7.37817 16.2094 7.31723 16.3594 7.07348C16.4391 6.94223 16.4531 6.8391 16.4531 6.3516C16.4531 5.83598 16.4438 5.77035 16.3453 5.62504C16.2844 5.53598 16.1672 5.44223 16.0781 5.40942C15.8531 5.33442 15.0141 5.33442 14.8313 5.4141ZM15.9375 6.35629V6.85317L15.4594 6.8391L14.9766 6.82504L14.9625 6.40785C14.9531 6.17817 14.9578 5.96254 14.9719 5.92504C14.9906 5.87817 15.1172 5.8641 15.4688 5.8641H15.9375V6.35629Z" fill="#5D6679"/>
<path d="M5.17031 8.30078C5.09063 8.34766 4.99688 8.43203 4.97344 8.48359C4.94531 8.53516 4.92188 8.83984 4.92188 9.16797C4.92188 10.0961 4.99688 10.1758 5.90625 10.1758C6.79688 10.1758 6.89063 10.0773 6.89063 9.15859C6.89063 8.68984 6.87656 8.58203 6.80156 8.46953C6.65156 8.23984 6.54375 8.21172 5.90625 8.20703C5.40469 8.20703 5.29688 8.22109 5.17031 8.30078ZM6.375 9.19141V9.66016H5.90625H5.4375V9.19141V8.72266H5.90625H6.375V9.19141Z" fill="#5D6679"/>
<path d="M8.35781 8.30078C8.27813 8.34766 8.18438 8.43203 8.16094 8.48359C8.13281 8.53516 8.10938 8.83984 8.10938 9.16797C8.10938 10.0961 8.18438 10.1758 9.09375 10.1758C9.975 10.1758 10.0781 10.0727 10.0781 9.19141C10.0781 8.30078 9.98438 8.20703 9.08438 8.20703C8.59688 8.20703 8.48438 8.22109 8.35781 8.30078ZM9.5625 9.19141V9.66016H9.09375H8.625V9.19141V8.72266H9.09375H9.5625V9.19141Z" fill="#5D6679"/>
<path d="M11.5969 8.25391C11.5406 8.27266 11.4516 8.35234 11.3953 8.42266C11.3063 8.53516 11.2969 8.60547 11.2969 9.18672C11.2969 10.1148 11.3578 10.1758 12.3047 10.1758H12.8906L13.0688 10.0164L13.2422 9.85703L13.2563 9.26641C13.275 8.60547 13.2188 8.39922 12.9797 8.27734C12.8344 8.19766 11.7703 8.18359 11.5969 8.25391ZM12.75 9.19141V9.66016H12.2813H11.8125V9.19141V8.72266H12.2813H12.75V9.19141Z" fill="#5D6679"/>
<path d="M5.2125 11.1C4.96406 11.2219 4.92188 11.3578 4.92188 12.0562V12.6703L5.07656 12.825C5.25938 13.0078 5.55938 13.064 6.14062 13.0219C6.5625 12.9937 6.675 12.9469 6.79688 12.7406C6.87656 12.614 6.89063 12.5015 6.89063 12.0281C6.89063 11.4 6.85781 11.2922 6.61406 11.1281C6.46875 11.0297 6.39844 11.0203 5.91094 11.0203C5.50313 11.0203 5.32969 11.0437 5.2125 11.1ZM6.375 12.0281V12.5203H5.90625H5.4375V12.0281V11.5359H5.90625H6.375V12.0281Z" fill="#5D6679"/>
<path d="M8.4 11.1C8.15156 11.2219 8.10938 11.3578 8.10938 12.0562V12.6703L8.26406 12.825C8.44688 13.0078 8.74688 13.064 9.32812 13.0219C9.75 12.9937 9.8625 12.9469 9.98438 12.7406C10.0641 12.614 10.0781 12.5015 10.0781 12.0281C10.0781 11.4 10.0453 11.2922 9.80156 11.1281C9.65625 11.0297 9.58594 11.0203 9.09844 11.0203C8.69063 11.0203 8.51719 11.0437 8.4 11.1ZM9.5625 12.0281V12.5203H9.09375H8.625V12.0281V11.5359H9.09375H9.5625V12.0281Z" fill="#5D6679"/>
<path d="M16.9773 11.164C15.782 11.3187 14.7227 11.8531 13.8742 12.739C13.4289 13.1984 13.2227 13.4796 12.9555 14.0046C12.5805 14.7406 12.4023 15.4718 12.4023 16.2921C12.4023 18.8093 13.9305 20.8203 16.3023 21.4296C18.4164 21.9687 20.7695 21.1296 21.932 19.4187C22.8555 18.0546 23.118 16.2593 22.6117 14.7171C21.843 12.3734 19.4195 10.8453 16.9773 11.164ZM18.257 11.6984C18.9695 11.764 19.9352 12.1437 20.5117 12.5796C21.4352 13.2781 22.0117 14.2343 22.2695 15.4812C22.4055 16.1515 22.3773 17.0421 22.1992 17.6515C21.7164 19.3062 20.4555 20.5296 18.7727 20.9843C18.5102 21.0546 18.2805 21.0734 17.6242 21.0734C16.7289 21.0734 16.443 21.0218 15.7445 20.7218C13.9633 19.9671 12.7867 18.0734 12.9039 16.1515C13.0164 14.3515 14.0148 12.8187 15.5383 12.1156C16.0305 11.8859 16.6492 11.7218 17.1555 11.6796C17.5961 11.6421 17.7039 11.6468 18.257 11.6984Z" fill="#5D6679"/>
<path d="M17.4656 12.4538C17.4094 12.5053 17.3906 12.6225 17.3906 12.8944C17.3906 13.2366 17.4 13.2741 17.5078 13.3444C17.6484 13.4382 17.8031 13.3913 17.8641 13.2366C17.9344 13.0538 17.9156 12.5991 17.8313 12.4819C17.7469 12.36 17.5688 12.346 17.4656 12.4538Z" fill="#5D6679"/>
<path d="M19.2516 13.3492C19.0875 13.6023 18.6938 14.2258 18.375 14.732L17.7891 15.6602H17.6016C17.2313 15.6602 16.9219 15.9742 16.9219 16.3539C16.9219 16.4664 16.9406 16.593 16.9641 16.6398C17.0016 16.7055 16.8703 16.8836 16.2844 17.582C15.8859 18.0555 15.5625 18.482 15.5625 18.5289C15.5625 18.6273 15.7219 18.8008 15.8156 18.8008C15.9188 18.8008 16.0219 18.693 16.7156 17.8633L17.3578 17.0898H17.5969C17.9156 17.0898 18.1359 16.9586 18.2719 16.6914C18.3938 16.4477 18.4031 16.2836 18.3 16.068L18.225 15.9086L19.0734 14.568C19.5422 13.8273 19.9219 13.1852 19.9219 13.1336C19.9219 13.007 19.7953 12.8945 19.6594 12.8945C19.5656 12.8945 19.4906 12.9789 19.2516 13.3492ZM17.7656 16.2133C17.85 16.2789 17.8641 16.3305 17.8406 16.4242C17.7984 16.6023 17.5922 16.6492 17.475 16.5039C17.3672 16.3727 17.3672 16.3398 17.4844 16.2227C17.6016 16.1055 17.6344 16.1055 17.7656 16.2133Z" fill="#5D6679"/>
<path d="M13.716 16.2038C13.6035 16.3163 13.6223 16.4898 13.7582 16.5788C13.8942 16.6679 14.4895 16.6585 14.5832 16.5648C14.6535 16.4944 14.6535 16.2882 14.5785 16.1991C14.4942 16.096 13.8192 16.1007 13.716 16.2038Z" fill="#5D6679"/>
<path d="M20.6814 16.185C20.5877 16.2788 20.6158 16.4897 20.7283 16.5694C20.8502 16.6538 21.3283 16.6725 21.4689 16.5975C21.6283 16.5132 21.6752 16.3725 21.5861 16.2413C21.5205 16.1382 21.483 16.1288 21.1267 16.1288C20.8877 16.1288 20.7142 16.1522 20.6814 16.185Z" fill="#5D6679"/>
<path d="M17.4469 19.4198C17.4141 19.4526 17.3906 19.6261 17.3906 19.8651C17.3906 20.2214 17.4 20.2589 17.5031 20.3245C17.6344 20.4136 17.775 20.3667 17.8594 20.2073C17.9344 20.0667 17.9156 19.5886 17.8313 19.4667C17.7516 19.3542 17.5406 19.3261 17.4469 19.4198Z" fill="#5D6679"/>
<path d="M6.09375 15.3789C5.99531 15.4773 5.97656 15.5289 5.91094 16.007C5.88281 16.1805 5.85938 16.3352 5.85 16.3398C5.84063 16.3492 5.68594 16.4148 5.50781 16.4945L5.175 16.6305L4.83281 16.382C4.33594 16.0164 4.29844 16.0258 3.75938 16.5648C3.22031 17.1086 3.21094 17.1508 3.58594 17.6477L3.84375 17.9898L3.73125 18.243C3.67031 18.3836 3.60938 18.5336 3.59531 18.5758C3.5625 18.6648 3.525 18.6742 3.01406 18.7539C2.52188 18.8336 2.50781 18.857 2.50781 19.6258C2.50781 20.4133 2.5125 20.418 3.13594 20.5117C3.375 20.5492 3.57656 20.582 3.58125 20.5914C3.58594 20.6008 3.64688 20.7508 3.71719 20.9336L3.84375 21.2617L3.70312 21.4492C3.4125 21.8383 3.31875 22.0258 3.35156 22.1664C3.37031 22.2555 3.52969 22.4523 3.79219 22.7102C4.3125 23.2164 4.36875 23.2258 4.85625 22.8602L5.19375 22.6023L5.5125 22.7383C5.86875 22.8883 5.87344 22.893 5.92969 23.3992C5.95781 23.6336 5.99063 23.7227 6.09375 23.8258C6.225 23.9523 6.23906 23.957 6.77344 23.957C7.35938 23.957 7.56094 23.9008 7.61719 23.7227C7.63594 23.6711 7.67344 23.4648 7.70156 23.268C7.73906 23.043 7.78594 22.8977 7.82812 22.8742C7.86563 22.8555 8.02031 22.7852 8.17031 22.7195L8.44219 22.6023L8.78438 22.8555C9.28594 23.2352 9.34219 23.2258 9.88125 22.6727C10.4109 22.1336 10.4156 22.1055 10.0547 21.6086L9.79688 21.2523L9.91406 20.9992C9.97969 20.8586 10.0313 20.7227 10.0313 20.6898C10.0313 20.6055 10.0922 20.582 10.5328 20.5117C11.1281 20.418 11.1562 20.3758 11.1562 19.6211C11.1562 18.8617 11.1281 18.8242 10.5328 18.7352C10.3078 18.7023 10.1156 18.6648 10.1063 18.6555C10.0781 18.6273 9.84375 18.0227 9.84375 17.9852C9.84375 17.9664 9.9375 17.8305 10.0453 17.6852C10.4672 17.1367 10.4578 17.0852 9.89531 16.532C9.375 16.0258 9.31875 16.0164 8.81719 16.3867L8.47031 16.6398L8.30156 16.5555C8.20781 16.5086 8.05313 16.443 7.95469 16.4148C7.76719 16.3492 7.76719 16.3492 7.68281 15.8242C7.60781 15.3086 7.57031 15.2852 6.81094 15.2852C6.25313 15.2852 6.17813 15.2945 6.09375 15.3789ZM7.21875 16.0914C7.32188 16.7711 7.30313 16.7336 7.64062 16.8273C7.75781 16.8602 7.97344 16.9492 8.11875 17.0242C8.26875 17.0992 8.43281 17.1602 8.48906 17.1602C8.54063 17.1602 8.74688 17.043 8.94375 16.9023L9.30469 16.6445L9.55313 16.8977L9.80625 17.1508L9.54375 17.4977C9.39844 17.6898 9.28125 17.8961 9.28125 17.9523C9.28125 18.0086 9.33281 18.1539 9.39375 18.2758C9.45469 18.3977 9.54375 18.6227 9.58594 18.768C9.63281 18.9273 9.69844 19.0539 9.75469 19.0867C9.80625 19.1102 10.0266 19.157 10.2422 19.1852L10.6406 19.2414V19.607C10.6406 20.0195 10.6875 19.9773 10.1109 20.0617C9.73594 20.118 9.67969 20.1508 9.60938 20.3852C9.57656 20.4789 9.47813 20.7227 9.38438 20.9242L9.22031 21.2852L9.45 21.618C9.57656 21.8008 9.69844 21.9789 9.72656 22.0164C9.75938 22.0633 9.7125 22.1383 9.53906 22.3164C9.4125 22.443 9.29063 22.5508 9.27188 22.5508C9.24844 22.5508 9.075 22.4336 8.8875 22.293C8.7 22.1523 8.50781 22.0352 8.46563 22.0352C8.41875 22.0352 8.29688 22.0867 8.18906 22.1477C8.08125 22.2086 7.84688 22.307 7.67344 22.3633C7.31719 22.4805 7.29844 22.5039 7.24688 22.9492C7.18125 23.4789 7.20938 23.4461 6.80156 23.432L6.44531 23.418L6.39375 23.0383C6.31406 22.4805 6.30938 22.4758 6.03281 22.382C5.89688 22.3398 5.66719 22.2414 5.52188 22.1711C5.37188 22.0961 5.22188 22.0352 5.18906 22.0352C5.15156 22.0352 4.96406 22.1523 4.76719 22.293C4.575 22.4336 4.39688 22.5508 4.37813 22.5508C4.33125 22.5508 3.89062 22.1242 3.89062 22.082C3.89062 22.0633 4.00781 21.8945 4.14844 21.707C4.28906 21.5195 4.40625 21.3227 4.40625 21.2711C4.40625 21.2195 4.36406 21.1117 4.31719 21.032C4.27031 20.9523 4.17188 20.7227 4.10156 20.5258C3.96094 20.1273 3.91875 20.0945 3.49219 20.043C2.96719 19.982 3 20.0102 3 19.6164C3 19.2227 2.94375 19.2695 3.54844 19.1758C3.73594 19.143 3.90938 19.0961 3.9375 19.0633C3.96094 19.0305 4.02656 18.8852 4.07344 18.7445C4.12031 18.6039 4.21875 18.3695 4.28906 18.2195L4.41563 17.9477L4.19063 17.6242C4.06406 17.4461 3.94219 17.268 3.91406 17.2305C3.88125 17.1789 3.92344 17.1039 4.10156 16.9258C4.22813 16.7992 4.35 16.6914 4.37344 16.6914C4.39688 16.6914 4.56094 16.7945 4.73438 16.9258C4.90781 17.0523 5.09063 17.1602 5.14219 17.1602C5.19375 17.1602 5.39062 17.0898 5.58281 17.0008C5.775 16.9117 5.99531 16.8273 6.07969 16.8086C6.28594 16.7664 6.31875 16.7148 6.375 16.3117C6.46406 15.7023 6.42188 15.7539 6.81563 15.7539H7.1625L7.21875 16.0914Z" fill="#5D6679"/>
<path d="M6.16332 17.5687C5.46488 17.8218 4.93519 18.3796 4.76176 19.0593C4.53207 19.9218 4.87894 20.8734 5.59613 21.3609C6.28051 21.8249 7.31176 21.8343 8.01019 21.3796C8.92894 20.7937 9.22426 19.4812 8.65707 18.5109C8.47894 18.2062 8.05707 17.8312 7.70082 17.6624C7.41488 17.5312 7.33051 17.5124 6.88988 17.503C6.51019 17.489 6.34613 17.5077 6.16332 17.5687ZM7.18988 18.028C7.63519 18.103 8.08051 18.4546 8.29144 18.8952C8.39926 19.1202 8.41332 19.214 8.41332 19.6218C8.41332 20.039 8.39926 20.1187 8.28676 20.3249C7.74301 21.3655 6.38832 21.5437 5.60551 20.6765C5.31019 20.3484 5.22582 20.114 5.22582 19.5984C5.22582 19.2421 5.24457 19.1109 5.32894 18.9327C5.54457 18.4593 6.01801 18.0937 6.52426 18.0093C6.77269 17.9671 6.83363 17.9718 7.18988 18.028Z" fill="#5D6679"/>
</g>
<defs>
<clipPath id="clip0_470_29918">
<rect width="24" height="24" fill="white" transform="translate(0 0.238281)"/>
</clipPath>
</defs>
</svg>
