<svg width="18" height="22" viewBox="0 0 18 22" fill="none" xmlns="http://www.w3.org/2000/svg">
<path d="M13 9.99988H12V2.99988C12 1.33988 10.66 -0.00012207 9 -0.00012207C7.34 -0.00012207 6 1.33988 6 2.99988V9.99988H5C2.24 9.99988 0 12.2399 0 14.9999V19.9999C0 21.0999 0.9 21.9999 2 21.9999H16C17.1 21.9999 18 21.0999 18 19.9999V14.9999C18 12.2399 15.76 9.99988 13 9.99988ZM16 19.9999H14V16.9999C14 16.4499 13.55 15.9999 13 15.9999C12.45 15.9999 12 16.4499 12 16.9999V19.9999H10V16.9999C10 16.4499 9.55 15.9999 9 15.9999C8.45 15.9999 8 16.4499 8 16.9999V19.9999H6V16.9999C6 16.4499 5.55 15.9999 5 15.9999C4.45 15.9999 4 16.4499 4 16.9999V19.9999H2V14.9999C2 13.3499 3.35 11.9999 5 11.9999H13C14.65 11.9999 16 13.3499 16 14.9999V19.9999Z" fill="#5D6679"/>
</svg>
